<?xml version="1.0" encoding="utf-8"?>
<!-- Generator: Adobe Illustrator 23.0.1, SVG Export Plug-In . SVG Version: 6.00 Build 0)  -->
<svg version="1.1" id="Livello_1" xmlns="http://www.w3.org/2000/svg" xmlns:xlink="http://www.w3.org/1999/xlink" x="0px" y="0px"
	 viewBox="0 0 248.2 251.6" style="enable-background:new 0 0 248.2 251.6;" xml:space="preserve">
<style type="text/css">
	.st0{fill:#FFC400;}
	.st1{fill:none;stroke:#212121;stroke-width:2;stroke-linecap:round;stroke-miterlimit:10;}
</style>
<path class="st0" d="M223.2,69c-9-10.8-23.6-20.2-52.9-39.1c-22.6-14.6-34.1-22-44.2-24.9C115.3,1.9,85.8-6.5,59.8,9.5
	c-14.9,9.2-22,22.3-25.1,28.2c-11.1,21.2-9.4,41.4-8.3,49.2c12.8-4.6,25.7-9.1,38.6-13.6c-0.2-1.5-1.4-14.7,8.3-23.5
	c9.5-8.7,23.9-8.1,33.4-2.1C119,55.5,120.8,71,119,80.6c-8.3,11.7-12.4,18-17.3,27.4c-10.7,22.7,0.6,48.3,2,51.3
	c14.8,32.2,50.2,38.8,56,39.9c7.3,1.3,28.3,4.9,49.8-6.6c24.5-13.1,37.9-39.3,38.7-63.4C249.2,100.3,232.2,79.9,223.2,69z
	 M165.9,151.4c-15.3,0-27.7-12.4-27.7-27.7S150.6,96,165.9,96s27.7,12.4,27.7,27.7S181.2,151.4,165.9,151.4z"/>
<g>
	<ellipse class="st1" cx="124.1" cy="179.1" rx="27.7" ry="27.7"/>
	<path class="st1" d="M53.4,155.1l-2.7,6.3c-1.8,5.4-2.7,12-2.7,18.2c0,42.3,34.5,70.1,76,70.1c41.5,0,75.1-34.3,75.1-76.7
		c0-15-4.2-29-11.6-40.9l0,0c-6-10.7-12.8-18.9-18.8-26.6c-2.1-2.7-15.2-19.2-32.3-31.5c-35.8-25.5-79.6-25.5-93-25
		c-5.7,0.1-13,0.9-21.1,3.1c-5.9,1.6-11,3.7-15.1,5.6c35,6.2,61.7,22.5,68.1,42.2c2.4,12.9-1.7,24.1-1.7,24.1
		c-3.8,7.8-2.5,5.4-5.4,9.7c-0.1,0.1-4.7,5.3-8,10.3c-3.7,5.5-6.7,11.3-6.9,11.5"/>
</g>
</svg>
