<?xml version="1.0" encoding="utf-8"?>
<!-- Generator: Adobe Illustrator 23.0.1, SVG Export Plug-In . SVG Version: 6.00 Build 0)  -->
<svg version="1.1" id="Livello_1" xmlns="http://www.w3.org/2000/svg" xmlns:xlink="http://www.w3.org/1999/xlink" x="0px" y="0px"
	 viewBox="0 0 248.2 251.6" style="enable-background:new 0 0 248.2 251.6;" xml:space="preserve">
<style type="text/css">
	.st0{fill:#FFC400;}
	.st1{fill:none;stroke:#212121;stroke-width:2;stroke-linecap:round;stroke-miterlimit:10;}
</style>
<path class="st0" d="M53.9,34c-9.5,10.3-17,26-31.9,57.5c-11.5,24.3-17.4,36.7-19,47.1c-1.7,11.1-6.2,41.5,13.1,65.2
	c11.1,13.6,25,18.9,31.2,21.2c22.5,8.3,42.3,3.9,49.9,1.8c-6.2-12.1-12.4-24.3-18.5-36.5c-1.5,0.4-14.4,3.3-24.4-5.2
	c-9.9-8.3-11.1-22.6-6.4-32.8c6.1-13.2,21.3-17,31-16.5c12.7,6.7,19.5,9.9,29.4,13.6c23.9,7.7,47.8-6.9,50.6-8.6
	c30-18.9,32-54.8,32.3-60.7c0.3-7.4,1.2-28.7-13-48.5C162.1,8.9,134.3-1,110.3,1.4C81.6,4.1,63.5,23.6,53.9,34z M143.1,80
	c2,15.2-8.7,29.1-23.9,31.1s-29.1-8.7-31.1-23.9s8.7-29.1,23.9-31.1S141.1,64.8,143.1,80z"/>
<g>
	<ellipse class="st1" cx="176" cy="117.9" rx="27.7" ry="27.7"/>
	<path class="st1" d="M161.3,191.1l6.6,1.9c5.6,1.1,12.2,1.1,18.4,0.3c42-5.5,65-43.3,59.6-84.4c-5.4-41.1-43.8-70-85.8-64.5
		c-14.9,2-28.3,8-39,16.8l0,0c-9.8,7.3-17.1,15.2-23.9,22.1c-2.4,2.4-17.1,17.5-27,36.1c-20.7,38.8-15,82.2-12.8,95.5
		c0.8,5.6,2.6,12.7,5.8,20.6c2.3,5.6,5.1,10.4,7.5,14.2c1.6-35.5,14.3-64.1,33-73c12.5-4.1,24.1-1.5,24.1-1.5
		c8.2,2.7,5.7,1.8,10.3,4.1c0.2,0.1,5.9,3.9,11.3,6.6c5.9,2.9,12.1,5.2,12.3,5.3"/>
</g>
</svg>
