<?xml version="1.0" encoding="utf-8"?>
<!-- Generator: Adobe Illustrator 23.0.1, SVG Export Plug-In . SVG Version: 6.00 Build 0)  -->
<svg version="1.1" id="Capa_1" xmlns="http://www.w3.org/2000/svg" xmlns:xlink="http://www.w3.org/1999/xlink" x="0px" y="0px"
	 viewBox="0 0 32.6 32.6" style="enable-background:new 0 0 32.6 32.6;" xml:space="preserve">
<g>
	<path d="M16,32.1L15.6,0.5c0-0.3,0.2-0.5,0.5-0.5s0.5,0.2,0.5,0.5L17,32.1c0,0.3-0.2,0.5-0.5,0.5C16.2,32.6,16,32.4,16,32.1z"/>
	<path d="M3.2,13.2c0-0.1,0-0.3,0.1-0.4L15.8,0.2C15.9,0.1,16,0,16.1,0c0.1,0,0.3,0,0.4,0.1l12.7,12.4c0.2,0.2,0.2,0.5,0,0.7
		c-0.2,0.2-0.5,0.2-0.7,0l-12.3-12l-12,12.3c-0.2,0.2-0.5,0.2-0.7,0C3.3,13.4,3.2,13.3,3.2,13.2z"/>
</g>
</svg>
