<?xml version="1.0" encoding="utf-8"?>
<!-- Generator: Adobe Illustrator 23.0.1, SVG Export Plug-In . SVG Version: 6.00 Build 0)  -->
<svg version="1.1" id="Livello_1" xmlns="http://www.w3.org/2000/svg" xmlns:xlink="http://www.w3.org/1999/xlink" x="0px" y="0px"
	 viewBox="0 0 588 583" style="enable-background:new 0 0 588 583;" xml:space="preserve">
<style type="text/css">
	.st0{fill:#333333;}
	.st1{fill:#F8EB5A;}
	.st2{fill:#666666;}
	.st3{fill:none;stroke:#1A1A1A;stroke-miterlimit:10;}
</style>
<path class="st0" d="M165.42,443.46l4.42-17.66l-12.19-4.81l-8.38,13.8c0,0,4.62,12.53-0.51,22.54
	C148.77,457.33,155.18,446.4,165.42,443.46z M157.23,435.36c1.5-0.61,3.23,0.09,3.85,1.56c0.63,1.47-0.09,3.17-1.59,3.79
	c-1.5,0.61-3.23-0.09-3.85-1.56C155.01,437.66,155.72,435.97,157.23,435.36z"/>
<path class="st1" d="M293.35,238.62c-35.12,28.8-81.09,88.12-120.07,157.42l-0.02-0.03l-6.82,12.03l7.27,2.8l3.84-10.12
	c20.8-37.49,77.22-135.4,180.4-200.45c0,0,38.41-22.88,76.26-54.52c-9.21,7.7-27.39,17.36-37.25,23.58
	C371.09,185.68,339.17,201.04,293.35,238.62z"/>
<path class="st1" d="M168.2,341.36c-7.99,28.22-7.53,49.72-4.44,55.63h4.83c13.34-27.63,77.57-127.69,117.55-159.02
	c41.42-32.46,73.38-51.34,100.25-65.11c9.44-4.83,19.12-11.38,27.85-17.95c10.6-8.36,21.35-17.3,30.76-26.05l-27.28,17.89
	l12.16-18.6l-23.22,23.61L421.78,126c-35.75,3.23-68.92,21.11-68.92,21.11c-13.27,15.74-23.96,40.78-23.96,40.78
	c-0.37-12.52,8.11-31.48,8.11-31.48c-6.27,2.86-30.07,16.46-30.07,16.46c-11.65,9.66-15.26,35.06-15.26,35.06
	c-2.21-10.02,5.53-29.33,5.53-29.33c-33.54,19.32-57.5,52.23-57.5,52.23c-16.58,32.55-2.95,57.95-8.11,51.87s-4.05-28.26-4.05-28.26
	c-35.02,33.63-38.7,49.72-38.7,49.72c-5.9,14.31-11.06,52.59-11.06,52.59c-3.32-3.58,0-23.61,0-23.61
	c-8.48,17.89-4.42,34.7-4.42,34.7C169.31,366.41,168.2,341.36,168.2,341.36z"/>
<path class="st1" d="M445.01,140.19c0,0-13.48,13.07-30.76,26.05c-27.08,21.36-53.16,38.82-53.16,38.82
	c-102.15,60.36-159.07,158.87-177.88,192.65h10c3.53-2.83,8.84-4.97,31.01-11.39c28.01-8.11,44.72-25.04,44.72-25.04
	s-25.55,14.31-37.6,12.88s-28.22,3.1-28.22,3.1s-6.18-2.86,24.29-7.39c30.47-4.53,80.6-38.63,80.6-38.63s-19.17,7.87-28.01,7.15
	c-8.84-0.72-30.71,0-30.71,0c14.49-3.34,28.01-1.43,50.13-9.78c22.12-8.35,20.89-7.63,20.89-7.63
	c25.06-8.35,35.47-34.34,35.47-34.34c-4.34,1.67-37.44,5.72-51.18,1.67c-13.73-4.05-37.13,0-37.13,0
	c22.12-7.39,27.03-4.05,32.43-4.29c5.41-0.24,22.85,1.19,57.5-10.73s44.48-26.71,44.48-26.71l-23.37,3.12
	c15.26-2.57,32.45-12.66,32.45-12.66c-10.57,2.86-27.03,4.29-27.03,4.29c19.41-4.29,30.22-10.25,30.22-10.25
	c18.18-13.83,22.36-34.34,22.36-34.34c-25.8,8.82-46.19,4.77-46.19,4.77c35.39-2.38,45.21-11.45,50.13-13.59
	c4.92-2.15,6.94-11.03,6.94-11.03c-17.88,6.44-38.15,7.51-38.15,7.51c21.93-3.4,40.72-14.49,40.72-14.49v-11.1
	c-8.48,4.83-23.4,8.59-23.4,8.59l23.22-15.02C451.09,144.84,445.01,140.19,445.01,140.19z"/>
<polygon class="st0" points="158.55,416.57 172.36,422.1 174.93,415.99 161.12,410.46 "/>
<path class="st2" d="M312.04,411.46c-45.63,21.94-89.46,36.89-147.76,38.85c-5.44,0.18-5.47,5.62,0,5.44
	c52.15-1.75,95.54-12.96,137.39-32.58c46.62-21.85,89.43-40.17,147.83-46.39c5.39-0.58,3.1-5.81-2.25-5.24
	C395.53,377.05,353.51,391.52,312.04,411.46z"/>
<circle class="st3" cx="291.5" cy="291.5" r="281"/>
</svg>
