<?xml version="1.0" encoding="utf-8"?>
<!-- Generator: Adobe Illustrator 23.0.1, SVG Export Plug-In . SVG Version: 6.00 Build 0)  -->
<svg version="1.1" id="Capa_1" xmlns="http://www.w3.org/2000/svg" xmlns:xlink="http://www.w3.org/1999/xlink" x="0px" y="0px"
	 viewBox="0 0 55.9 55.9" style="enable-background:new 0 0 55.9 55.9;" xml:space="preserve">
<style type="text/css">
	.st0{fill:#2D28AD;}
</style>
<g>
	<g>
		<path class="st0" d="M46,2.2C44.1,0.8,41.7,0,39.1,0H23c-0.5,0-1,0.1-1.4,0.2c-1.9,0.5-8.2,2.7-8.2,10.1l0.2,2.7
			c-3.1-0.1-5.4,0.5-6.6,1.8c-0.8,0.8-1.2,1.8-1.1,3v7.6c0,1,0.4,2,1,2.7l9.2,10.6c0,0,0.1,0.1,0.1,0.1c0,0,0.1,0.1,0.1,0.1
			c0,0,0.2,0.1,0.5,0.3V51c0,0.3,0.2,0.7,0.5,0.8c0.1,0.1,3.4,2.1,8.3,3.1h0c2.4,0.6,4.2,0.9,6,0.9c1.9,0,3.8-0.3,6.4-0.9
			c5.5-0.9,8.3-3.1,8.4-3.2c0.2-0.2,0.4-0.5,0.4-0.8V39.2c0.3-0.2,0.5-0.3,0.6-0.3c0.3-0.2,0.4-0.4,0.4-0.8l2-27.9
			C49.9,6.9,48.6,4.1,46,2.2z M7.9,25.4v-7.7c0,0,0,0,0-0.1c0-0.6,0.1-1.1,0.5-1.5c0.8-0.8,2.5-1.2,4.9-1.2c0.2,0,0.4,0,0.5,0
			l1.7,19.2l0.1,0.8l-7.2-8.2C8.1,26.4,7.9,25.9,7.9,25.4z M18.9,40.1c0.7,0.3,1.6,0.6,2.6,0.9c0,0,0,0,0,0c0.2,0.1,0.4,0.1,0.7,0.2
			c0.1,0,0.1,0,0.2,0c0.2,0.1,0.4,0.1,0.6,0.2c0.1,0,0.2,0.1,0.3,0.1c0.2,0,0.4,0.1,0.5,0.1c0.2,0,0.3,0.1,0.5,0.1
			c0.2,0,0.3,0.1,0.5,0.1c0,0,0.1,0,0.1,0v10.9c-2.9-0.8-5.1-1.8-6-2.3L18.9,40.1L18.9,40.1z M26.9,53.2l0-17.7c0-0.3,0-0.6,0.1-0.9
			c0,0,0,0,0,0c0.2-0.8,0.7-1.6,1.3-2.2c0.2-0.1,0.3-0.3,0.5-0.4c0.1-0.1,0.2-0.1,0.3-0.2c0.2-0.1,0.5-0.3,0.7-0.4
			c0,0,0.1,0,0.1-0.1c0.3-0.1,0.6-0.2,1-0.3c0.1,0,0.2,0,0.3,0c0.3,0,0.5-0.1,0.8-0.1c0.1,0,0.2,0,0.3,0c2.5,0.2,4.6,2.6,4.6,5.2V41
			v12.2C32.8,54.1,30.7,54.1,26.9,53.2z M44.9,50.5c-0.8,0.5-2.8,1.6-6,2.3V41.8c0,0,0.1,0,0.1,0c0.2,0,0.3-0.1,0.5-0.1
			c0.2,0,0.3-0.1,0.5-0.1c0.2,0,0.4-0.1,0.5-0.1c0.1,0,0.2-0.1,0.4-0.1c0.2,0,0.4-0.1,0.6-0.2c0.1,0,0.1,0,0.2-0.1
			c1.3-0.4,2.4-0.7,3.2-1.1V50.5z M46,37.4c-0.1,0.1-0.3,0.2-0.5,0.3l0,0c-0.7,0.4-2,0.9-3.8,1.5c0,0,0,0-0.1,0
			c-0.2,0.1-0.5,0.1-0.8,0.2c-0.2,0-0.3,0.1-0.5,0.1c-0.2,0-0.4,0.1-0.6,0.1c-0.2,0.1-0.5,0.1-0.7,0.2c0,0-0.1,0-0.1,0v-3.6v-0.6
			c0-3.5-2.9-6.4-6.6-6.6c-0.1,0-0.2,0-0.2,0c-0.1,0-0.1,0-0.2,0l0,0l0,0c-1.2,0-2.4,0.3-3.4,0.8c0,0-0.1,0-0.1,0.1
			C28.3,30,28.1,30,28,30.1c-0.1,0-0.2,0.1-0.2,0.2c-0.1,0.1-0.2,0.1-0.3,0.2c-0.1,0.1-0.2,0.2-0.3,0.3c-0.1,0.1-0.1,0.1-0.2,0.2
			c0,0-0.1,0.1-0.1,0.1c-0.1,0.1-0.2,0.2-0.3,0.3c0,0,0,0-0.1,0.1c-0.1,0.2-0.3,0.3-0.4,0.5c0,0,0,0,0,0c-0.3,0.3-0.5,0.7-0.6,1.1
			c0,0,0,0,0,0c-0.1,0.2-0.2,0.4-0.2,0.5c0,0,0,0,0,0.1c-0.1,0.2-0.1,0.3-0.1,0.5c0,0,0,0.1,0,0.1c0,0.2-0.1,0.3-0.1,0.5
			c0,0,0,0.1,0,0.1c0,0.2,0,0.4,0,0.6l0,4.3c0,0-0.1,0-0.1,0c-0.2,0-0.5-0.1-0.7-0.2c-0.2,0-0.4-0.1-0.6-0.1
			c-0.3-0.1-0.5-0.1-0.8-0.2c-0.1,0-0.3-0.1-0.4-0.1c-0.4-0.1-0.7-0.2-1-0.3c0,0,0,0,0,0c-1.7-0.6-2.9-1.1-3.4-1.5l-2.1-23.5
			c0,0,0,0,0,0l-0.3-3.7c0-5.7,4.7-7.6,6.7-8.1C22.4,2,22.7,2,23,2h16.1c2.1,0,4.2,0.6,5.7,1.8c2.1,1.5,3.1,3.7,3.1,6.3L46,37.4z"/>
		<path class="st0" d="M35.7,34.3c-0.4-0.4-1-0.4-1.4,0l-2.3,2.3l-2.3-2.3c-0.4-0.4-1-0.4-1.4,0s-0.4,1,0,1.4l2.3,2.3l-2.3,2.3
			c-0.4,0.4-0.4,1,0,1.4c0.2,0.2,0.5,0.3,0.7,0.3s0.5-0.1,0.7-0.3l2.3-2.3l2.3,2.3c0.2,0.2,0.5,0.3,0.7,0.3s0.5-0.1,0.7-0.3
			c0.4-0.4,0.4-1,0-1.4L33.4,38l2.3-2.3C36,35.3,36,34.7,35.7,34.3z"/>
		<path class="st0" d="M35.7,44.3c-0.4-0.4-1-0.4-1.4,0l-2.3,2.3l-2.3-2.3c-0.4-0.4-1-0.4-1.4,0s-0.4,1,0,1.4l2.3,2.3l-2.3,2.3
			c-0.4,0.4-0.4,1,0,1.4c0.2,0.2,0.5,0.3,0.7,0.3s0.5-0.1,0.7-0.3l2.3-2.3l2.3,2.3c0.2,0.2,0.5,0.3,0.7,0.3s0.5-0.1,0.7-0.3
			c0.4-0.4,0.4-1,0-1.4L33.4,48l2.3-2.3C36,45.3,36,44.7,35.7,44.3z"/>
		<path class="st0" d="M33.9,5c-0.6,0-1,0.4-1,1s0.4,1,1,1c5,0,9,4,9,9c0,0.6,0.4,1,1,1s1-0.4,1-1C44.9,9.9,40,5,33.9,5z"/>
	</g>
</g>
</svg>
