<?xml version="1.0" encoding="utf-8"?>
<!-- Generator: Adobe Illustrator 23.0.1, SVG Export Plug-In . SVG Version: 6.00 Build 0)  -->
<svg version="1.1" id="Capa_1" xmlns="http://www.w3.org/2000/svg" xmlns:xlink="http://www.w3.org/1999/xlink" x="0px" y="0px"
	 viewBox="0 0 343.7 343.7" style="enable-background:new 0 0 343.7 343.7;" xml:space="preserve">
<style type="text/css">
	.st0{fill:#2D28AD;}
</style>
<g>
	<path class="st0" d="M339.7,253.1h-1.4v-36.6h1.4c2.2,0,4-1.8,4-4s-1.8-4-4-4h-1.5c-1.8-30.9-26.9-55.7-57.9-57.1V81.8
		c0-28.4-21.8-51.8-49.6-54.3v-9.1c0-5.4-4.4-9.9-9.9-9.9h-98c-5.4,0-9.9,4.4-9.9,9.9v9.1C85.2,30,63.4,53.4,63.4,81.8v69.6
		c-31.1,1.4-56.1,26.1-57.9,57.1H4c-2.2,0-4,1.8-4,4s1.8,4,4,4h1.4v36.6H4c-2.2,0-4,1.8-4,4s1.8,4,4,4h1.4v12.3
		c0,14.4,11.7,26.1,26.1,26.1h31.9v2.4c0,18.3,14.9,33.3,33.3,33.3H247c18.4,0,33.3-14.9,33.3-33.3v-2.4h31.9
		c14.4,0,26.1-11.7,26.1-26.1v-12.3h1.4c2.2,0,4-1.8,4-4C343.7,254.9,341.9,253.1,339.7,253.1z M330.4,253.1h-50v-36.6h50V253.1z
		 M330.2,208.5h-49.9v-49.1C307,160.7,328.4,182,330.2,208.5z M272.3,79.8c-7.7,19.9-21,37-38.5,49.3c-5.9,4.1-12.1,7.6-18.6,10.5
		V125h4.5c2.2,0,4-1.8,4-4v-17c0-2.2-1.8-4-4-4h-4.5V35.2h10.6C250.8,35.2,271.2,55,272.3,79.8z M137.1,108v9h-9v-9H137.1z
		 M141.1,125c2.2,0,4-1.8,4-4v-17c0-2.2-1.8-4-4-4h-4.5V35.2h70.6V100h-4.5c-2.2,0-4,1.8-4,4v17c0,2.2,1.8,4,4,4h4.5v17.8
		c-11.2,3.9-23.1,5.9-35.3,5.9s-24-2-35.3-5.9V125C136.6,125,141.1,125,141.1,125z M206.7,117v-9h9v9H206.7z M122.9,16.5h98
		c1,0,1.9,0.8,1.9,1.9v8.9H121v-8.9C121,17.3,121.8,16.5,122.9,16.5z M117.9,35.2h10.6V100h-4.5c-2.2,0-4,1.8-4,4v17
		c0,2.2,1.8,4,4,4h4.5v14.6c-6.5-2.9-12.7-6.4-18.6-10.5c-17.5-12.4-30.8-29.4-38.5-49.3C72.5,55,92.9,35.2,117.9,35.2z M63.4,159.4
		v49.1H13.5C15.3,182,36.8,160.7,63.4,159.4z M13.4,216.5h50v36.6h-50V216.5z M31.5,291.5c-10,0-18.1-8.1-18.1-18.1v-12.3h50v30.4
		H31.5z M272.3,302c0,13.9-11.3,25.3-25.3,25.3H96.7c-13.9,0-25.3-11.3-25.3-25.3V98.3c8.4,14.7,19.9,27.4,34,37.3
		c7.3,5.1,15.1,9.4,23.2,12.7v19.5c0,2.2,1.8,4,4,4s4-1.8,4-4v-16.7c11.3,3.6,23.2,5.5,35.3,5.5s24-1.9,35.3-5.5v16.7
		c0,2.2,1.8,4,4,4s4-1.8,4-4v-19.5c8.1-3.3,15.9-7.5,23.2-12.7c14.1-9.9,25.6-22.6,34-37.3L272.3,302L272.3,302z M330.4,273.4
		c0,10-8.1,18.1-18.1,18.1h-31.9v-30.4h50V273.4z"/>
	<path class="st0" d="M236.3,200.4h-129c-4.3,0-7.8,3.5-7.8,7.8v58c0,21.8,17.7,39.5,39.5,39.5h65.7c21.8,0,39.5-17.7,39.5-39.5v-58
		C244.2,204,240.7,200.4,236.3,200.4z M171.9,227.2c-2.2,0-4,1.8-4,4v13h-32.6c-15.3,0-27.7-12.4-27.7-27.7v-8.1h128.6v8.1
		c0,15.3-12.4,27.7-27.7,27.7h-32.6v-13C175.9,229,174.1,227.2,171.9,227.2z M236.2,266.3c0,17.4-14.1,31.5-31.5,31.5H139
		c-17.4,0-31.5-14.1-31.5-31.5V239c6.5,8,16.5,13.2,27.7,13.2h32.6v21.9c0,2.2,1.8,4,4,4s4-1.8,4-4v-21.9h32.6
		c11.2,0,21.1-5.1,27.7-13.2V266.3z"/>
</g>
</svg>
