<?xml version="1.0" encoding="utf-8"?>
<!-- Generator: Adobe Illustrator 23.0.1, SVG Export Plug-In . SVG Version: 6.00 Build 0)  -->
<svg version="1.1" id="Livello_1" xmlns="http://www.w3.org/2000/svg" xmlns:xlink="http://www.w3.org/1999/xlink" x="0px" y="0px"
	 viewBox="0 0 255 260" style="enable-background:new 0 0 255 260;" xml:space="preserve">
<style type="text/css">
	.st0{fill:#F7EA59;}
	.st1{fill:#FFFFFF;}
	.st2{fill:none;stroke:#3C3C3B;stroke-miterlimit:10;stroke-dasharray:2;}
</style>
<g>
	<path class="st0" d="M211.76,197.57c-21.53,11.51-42.47,7.93-49.77,6.57c-5.79-1.08-41.23-7.67-56.04-39.9
		c-1.37-2.99-12.74-28.65-2.04-51.34c6.21-13.17,14.96-14.53,17.33-27.41c1.76-9.57-0.04-25.09-12.27-32.89
		c-9.46-6.03-23.86-6.61-33.37,2.06c-9.68,8.83-8.51,21.95-8.35,23.51C54.37,82.7,41.5,87.22,28.62,91.75
		c-1.07-7.81-2.76-28.02,8.34-49.19c3.08-5.88,10.18-19.03,25.09-28.22c26.01-16.05,55.5-7.56,66.27-4.47
		c10.12,2.91,21.61,10.33,44.23,24.93c29.29,18.89,43.93,28.34,52.91,39.12c9.05,10.86,26.05,31.27,24.99,60.21
		C249.58,158.31,236.22,184.5,211.76,197.57z"/>
	<circle class="st1" cx="167.45" cy="128.89" r="27.66"/>
</g>
<g>
	<path class="st2" d="M109.87,253.41c-12.18-1.72-21.35-6.17-25.95-8.45c-7.34-3.64-15.88-7.86-23.33-16.78
		c-9.37-11.23-11.56-23.34-12.47-28.8c-0.79-4.69-4.26-28.51,9.33-48.62c7.24-10.71,14.09-12.62,16.94-23.76
		c0,0,2.49-9.71-1.3-21.68C66.77,85.39,39.96,68.99,4.86,62.69c4.13-2,9.19-4.05,15.12-5.68c8.18-2.25,15.48-2.99,21.22-3.14
		c13.48-0.46,57.4-0.54,93.31,25.27c17.21,12.37,30.32,29.07,32.4,31.75c6.76,8.71,13.67,17.62,18.79,31.1
		c2.89,7.62,10.52,28.55,4.37,54.26c-2.16,9.04-7.74,32.38-29.76,47C138.85,257.51,115.7,254.23,109.87,253.41z"/>
	
		<ellipse transform="matrix(0.9022 -0.4313 0.4313 0.9022 -67.2598 72.3613)" class="st2" cx="125.92" cy="184.49" rx="27.66" ry="27.66"/>
</g>
</svg>
