<?xml version="1.0" encoding="utf-8"?>
<!-- Generator: Adobe Illustrator 23.0.1, SVG Export Plug-In . SVG Version: 6.00 Build 0)  -->
<svg version="1.1" id="Livello_1" xmlns="http://www.w3.org/2000/svg" xmlns:xlink="http://www.w3.org/1999/xlink" x="0px" y="0px"
	 viewBox="0 0 252.3 263.7" style="enable-background:new 0 0 252.3 263.7;" xml:space="preserve">
<style type="text/css">
	.st0{fill:#FFE74E;}
	.st1{fill:#FFFFFF;}
	.st2{fill:none;stroke:#26377B;stroke-width:4;stroke-miterlimit:10;stroke-dasharray:2;}
</style>
<path class="st0" d="M166.3,26.4c16.6,17.9,18.4,39.1,19,46.5c0.4,5.9,3,41.8-24.5,64.3c-2.5,2.1-24.5,19.5-49.1,14.9
	c-14.3-2.7-17.8-10.9-30.9-9.8c-9.7,0.7-24.3,6.3-28.7,20.2c-3.4,10.7-0.4,24.8,10.5,31.8c11,7.2,23.4,2.7,24.8,2.1
	c7.6,11.3,15.2,22.7,22.9,33.9c-7.3,3-26.4,9.8-49.7,4.4c-6.5-1.5-21-5.1-33.6-17.2c-22-21.1-21.4-51.8-21.1-63
	c0.3-10.5,4.5-23.5,12.9-49.1c10.9-33.1,16.3-49.6,24.5-61.1C51.5,32.8,67,11.2,95.2,4.9C118.7-0.4,147.5,6,166.3,26.4z"/>
<ellipse transform="matrix(0.9676 -0.2525 0.2525 0.9676 -18.2577 30.8361)" class="st1" cx="111" cy="86.6" rx="27.7" ry="27.7"/>
<path class="st2" d="M246,110.8c1.4,12.2-0.6,22.2-1.6,27.2c-1.6,8-3.6,17.4-10.4,26.8c-8.5,11.9-19.6,17.1-24.7,19.4
	c-4.3,2-26.5,11.4-49.4,3.3c-12.2-4.3-15.8-10.5-27.3-10.3c0,0-10,0-20.7,6.7c-17.6,11.2-26.7,41.3-24,76.8c-3-3.5-6.3-7.9-9.3-13.2
	c-4.2-7.4-6.8-14.2-8.4-19.7c-3.9-12.9-15-55.4,0.9-96.7c7.7-19.8,20.5-36.7,22.6-39.4c6.7-8.8,13.6-17.7,25.3-26
	c6.6-4.7,24.9-17.4,51.4-18c9.3-0.1,33.3-0.7,53,17C242.7,81.8,245.3,105,246,110.8z"/>
<ellipse class="st2" cx="175.3" cy="115.9" rx="27.7" ry="27.7"/>
</svg>
