<?xml version="1.0" encoding="utf-8"?>
<!-- Generator: Adobe Illustrator 23.0.1, SVG Export Plug-In . SVG Version: 6.00 Build 0)  -->
<svg version="1.1" id="Livello_1" xmlns="http://www.w3.org/2000/svg" xmlns:xlink="http://www.w3.org/1999/xlink" x="0px" y="0px"
	 viewBox="0 0 252 261" style="enable-background:new 0 0 252 261;" xml:space="preserve">
<style type="text/css">
	.st0{fill:#F7EA59;}
	.st1{fill:#FFFFFF;}
	.st2{fill:none;stroke:#3C3C3B;stroke-miterlimit:10;stroke-dasharray:2;}
</style>
<g>
	<path class="st0" d="M5.91,134.12C4.85,105.19,21.85,84.78,30.9,73.92c8.98-10.78,23.63-20.23,52.91-39.12
		c22.62-14.59,34.12-22.02,44.23-24.93c10.77-3.1,40.26-11.58,66.27,4.47c14.91,9.2,22.01,22.35,25.09,28.22
		c11.1,21.17,9.41,41.38,8.34,49.19c-12.88-4.52-25.75-9.05-38.63-13.57c0.16-1.56,1.34-14.69-8.35-23.51
		c-9.52-8.68-23.92-8.09-33.37-2.06c-12.24,7.8-14.03,23.32-12.27,32.89c2.37,12.87,11.12,14.23,17.33,27.41
		c10.7,22.69-0.66,48.35-2.04,51.34c-14.82,32.23-50.26,38.83-56.04,39.9c-7.3,1.36-28.24,4.94-49.77-6.57
		C20.15,184.5,6.79,158.31,5.91,134.12z"/>
	<circle class="st1" cx="88.91" cy="128.89" r="27.66"/>
</g>
<g>
	<path class="st2" d="M96.06,243.26c-22.01-14.62-27.6-37.96-29.76-47c-6.15-25.72,1.47-46.64,4.37-54.26
		c5.12-13.48,12.03-22.39,18.79-31.1c2.08-2.68,15.19-19.38,32.4-31.75c35.91-25.82,79.83-25.73,93.31-25.27
		c5.74,0.15,13.04,0.89,21.22,3.14c5.92,1.63,10.98,3.68,15.12,5.68c-35.1,6.3-61.91,22.7-68.22,42.63
		c-3.79,11.96-1.3,21.68-1.3,21.68c2.86,11.14,9.71,13.05,16.94,23.76c13.59,20.1,10.12,43.92,9.33,48.62
		c-0.92,5.46-3.1,17.57-12.47,28.8c-7.45,8.92-15.99,13.15-23.33,16.78c-4.6,2.28-13.77,6.73-25.95,8.45
		C140.67,254.23,117.52,257.51,96.06,243.26z"/>
	
		<ellipse transform="matrix(0.4313 -0.9022 0.9022 0.4313 -92.2634 222.5946)" class="st2" cx="130.44" cy="184.49" rx="27.66" ry="27.66"/>
</g>
</svg>
