<?xml version="1.0" encoding="utf-8"?>
<!-- Generator: Adobe Illustrator 23.0.1, SVG Export Plug-In . SVG Version: 6.00 Build 0)  -->
<svg version="1.1" id="Livello_1" xmlns="http://www.w3.org/2000/svg" xmlns:xlink="http://www.w3.org/1999/xlink" x="0px" y="0px"
	 viewBox="0 0 421 391" style="enable-background:new 0 0 421 391;" xml:space="preserve">
<style type="text/css">
	.st0{fill:#F8EB5A;}
	.st1{fill:#FFFFFF;}
	.st2{fill:none;}
	.st3{font-family:'Assistant-ExtraLight';}
	.st4{font-size:18.287px;}
	.st5{font-family:'EncodeSansCondensed-Regular';}
	.st6{letter-spacing:-1;}
	.st7{fill:none;stroke:#3C3C3B;stroke-miterlimit:10;stroke-dasharray:2;}
</style>
<g>
	<g>
		<path class="st0" d="M272.76,273.57c-21.53,11.51-42.47,7.93-49.77,6.57c-5.79-1.08-41.23-7.67-56.04-39.9
			c-1.37-2.99-12.74-28.65-2.04-51.34c6.21-13.17,14.96-14.53,17.33-27.41c1.76-9.57-0.04-25.09-12.27-32.89
			c-9.46-6.03-23.86-6.61-33.37,2.06c-9.68,8.83-8.51,21.95-8.35,23.51c-12.88,4.52-25.75,9.04-38.63,13.57
			c-1.07-7.81-2.76-28.02,8.34-49.19c3.08-5.88,10.18-19.03,25.09-28.22c26.01-16.05,55.5-7.56,66.27-4.47
			c10.12,2.91,21.61,10.33,44.23,24.93c29.29,18.89,43.93,28.34,52.91,39.12c9.05,10.86,26.05,31.27,24.99,60.21
			C310.58,234.31,297.22,260.5,272.76,273.57z"/>
		<circle class="st1" cx="228.45" cy="204.89" r="27.66"/>
	</g>
	<rect x="249.18" y="296.79" class="st2" width="294.82" height="49.89"/>
	<text transform="matrix(1 0 0 1 249.1748 309.9949)"><tspan x="0" y="0" class="st3 st4">Gaia Picorelli</tspan><tspan x="0" y="21.94" class="st5 st4 st6">Graphic Designer</tspan></text>
	<g>
		<path class="st7" d="M170.87,329.41c-12.18-1.72-21.35-6.17-25.95-8.45c-7.34-3.64-15.88-7.86-23.33-16.78
			c-9.37-11.23-11.56-23.34-12.47-28.8c-0.79-4.69-4.26-28.51,9.33-48.62c7.24-10.71,14.09-12.62,16.94-23.76
			c0,0,2.49-9.71-1.3-21.68c-6.32-19.93-33.13-36.34-68.22-42.63c4.13-2,9.19-4.05,15.12-5.68c8.18-2.25,15.48-2.99,21.22-3.14
			c13.48-0.46,57.4-0.54,93.31,25.27c17.21,12.37,30.32,29.07,32.4,31.75c6.76,8.71,13.67,17.62,18.79,31.1
			c2.89,7.62,10.52,28.55,4.37,54.26c-2.16,9.04-7.74,32.38-29.76,47C199.85,333.51,176.7,330.23,170.87,329.41z"/>
		
			<ellipse transform="matrix(0.9022 -0.4313 0.4313 0.9022 -94.0753 106.1069)" class="st7" cx="186.92" cy="260.49" rx="27.66" ry="27.66"/>
	</g>
</g>
</svg>
