<?xml version="1.0" encoding="utf-8"?>
<!-- Generator: Adobe Illustrator 23.0.1, SVG Export Plug-In . SVG Version: 6.00 Build 0)  -->
<svg version="1.1" id="Capa_1" xmlns="http://www.w3.org/2000/svg" xmlns:xlink="http://www.w3.org/1999/xlink" x="0px" y="0px"
	 viewBox="0 0 411.2 411.2" style="enable-background:new 0 0 411.2 411.2;" xml:space="preserve">
<style type="text/css">
	.st0{fill:#FFE64D;}
</style>
<g>
	<g>
		<g>
			<rect x="10.6" y="100.7" class="st0" width="113" height="81.6"/>
			<path class="st0" d="M123.6,12.6C123.6,5.6,118,0,111.1,0H23.2c-6.9,0-12.6,5.6-12.6,12.6v64h113L123.6,12.6L123.6,12.6z"/>
			<path class="st0" d="M123.6,376v-64h-113v64c0,6.9,5.6,12.6,12.6,12.6h87.9C118,388.6,123.6,382.9,123.6,376z M67.1,338.7
				c6.4,0,11.6,5.2,11.6,11.6c0,6.4-5.2,11.6-11.6,11.6s-11.6-5.2-11.6-11.6S60.7,338.7,67.1,338.7z"/>
			<rect x="10.6" y="206.3" class="st0" width="113" height="81.6"/>
			<polygon class="st0" points="247.5,150.2 154,97.7 138,126.2 138,177.5 209.6,217.7 			"/>
			<path class="st0" d="M288.4,77.5c1.6-2.8,2-6,1.1-9.1c-0.9-3.1-2.9-5.6-5.7-7.2l-72.6-40.8c-1.8-1-3.8-1.5-5.9-1.5
				c-4.3,0-8.3,2.3-10.5,6.1l-29.7,52.9l93.5,52.5L288.4,77.5z"/>
			<polygon class="st0" points="138,318.3 138,345.3 149.5,324.8 			"/>
			<polygon class="st0" points="198.5,237.5 138,203.5 138,292.3 160.6,305 			"/>
			<polygon class="st0" points="264,161.7 249.8,173 218.5,228.7 270.6,293.8 331,245.4 264.9,162.8 			"/>
			<path class="st0" d="M398,176.3l-52.1-65c-2.3-2.9-5.7-4.5-9.4-4.5c-2.7,0-5.4,0.9-7.5,2.6l-47.4,38l67.1,83.7l47.4-38
				C401.3,189.1,402.1,181.5,398,176.3z"/>
			<path class="st0" d="M141.3,366.2v9.8c0,11.6-9.5,21.1-21.1,21.1h-17.3l7.7,9.6c2.3,2.9,5.7,4.5,9.4,4.5c2.7,0,5.4-0.9,7.5-2.6
				l47.4-38l-21.1-26.4L141.3,366.2z"/>
			<polygon class="st0" points="165.7,322.9 192.5,356.4 252.9,308 206.5,250.1 			"/>
		</g>
	</g>
</g>
</svg>
