<?xml version="1.0" encoding="iso-8859-1"?>
<!-- Generator: Adobe Illustrator 19.1.0, SVG Export Plug-In . SVG Version: 6.00 Build 0)  -->
<svg version="1.1" id="Capa_1" xmlns="http://www.w3.org/2000/svg" xmlns:xlink="http://www.w3.org/1999/xlink" x="0px" y="0px"
	 viewBox="0 0 539.887 539.887" style="enable-background:new 0 0 539.887 539.887;" xml:space="preserve">
<g>
	<g>
		<path d="M534.109,515.597l-82.26-82.26c23.641-24.905,43.278-53.105,58.411-83.935c13.574-27.616,5.707-60.974-18.705-79.337
			c-21.369-16.095-45.402-26.932-71.488-32.279c-9.703-1.963-17.319-8.894-20.361-18.489c-2.952-9.326-0.846-18.705,5.815-25.78
			c8.246-8.767,19.695-13.592,32.243-13.592c0,0,22.197-0.036,24.141-0.108c23.314-0.792,43.494-13.826,54.008-34.835
			c10.495-20.991,8.803-44.934-4.519-64.053C478.34,33.51,426.511,4.256,369.154,0.637c-81.317-4.969-162.041,19.245-227.265,68.554
			l10.856,14.348C214.53,36.84,290.879,13.833,368.038,18.64c51.83,3.258,98.708,29.74,128.612,72.623
			c9.505,13.61,10.693,30.695,3.186,45.691c-7.508,15.015-21.91,24.322-38.526,24.88c-2.052,0.072-23.565,0.108-23.547,0.108
			c-17.571,0-33.683,6.841-45.349,19.245c-11.089,11.773-14.78,28.084-9.865,43.566c4.987,15.68,17.967,27.436,33.917,30.694
			c23.421,4.77,45.06,14.528,64.251,29.002c17.517,13.178,23.151,37.139,13.376,57.014c-15.572,31.756-36.167,60.542-61.245,85.602
			c-65.655,65.674-156.209,100.005-249.408,94.19C98.163,515.89,29.789,447.516,24.424,362.22
			c-4.717-75.413,17.444-150.628,62.451-211.819l-14.492-10.658C24.855,204.318,1.451,283.728,6.438,363.335
			c5.941,94.352,81.552,169.963,175.867,175.886c7.165,0.45,14.33,0.666,21.459,0.666c87.436,0,171.789-33.516,235.359-93.817
			l82.256,82.256L534.109,515.597z"/>
		<path d="M114.87,143.202c0.006,0.005,0.01,0.011,0.016,0.016L227.24,246.895c1.728,1.602,3.925,2.394,6.103,2.394
			c2.304,0,4.608-0.882,6.355-2.646l0.005-0.005l11.091,11.088c-0.889,0.821-1.774,1.648-2.635,2.508
			c-4.933,4.933-7.651,11.576-7.651,18.687s2.736,13.754,7.651,18.669c16.976,16.977,39.552,26.338,63.567,26.338
			c24.015,0,46.591-9.344,63.567-26.32c4.933-4.933,7.651-11.576,7.651-18.687s-2.736-13.754-7.651-18.669
			c-16.976-16.977-39.552-26.338-63.567-26.338c-16.621,0-32.548,4.491-46.411,12.874l-12.883-12.879
			c3.414-3.404,3.538-8.907,0.246-12.452L148.965,109.139c-0.773-0.849-1.701-1.523-2.722-2.011
			c-13.449-25.824-36.912-46.876-66.767-59.702c-17.409-7.453-32.801-18.309-45.763-32.261c-2.737-2.934-7.237-3.654-10.766-1.854
			c-3.475,1.746-5.419,5.508-4.879,9.361C26.054,77.505,62.997,123.332,114.87,143.202z M258.512,278.921
			c0-2.304,0.846-4.411,2.376-5.941c0.864-0.864,1.748-1.703,2.647-2.517l33.318,33.309c-13.368-2.669-26.018-8.966-35.966-18.928
			C259.357,283.332,258.512,281.225,258.512,278.921z M311.727,251.917c19.209,0,37.265,7.489,50.84,21.081
			c1.53,1.512,2.376,3.619,2.376,5.923s-0.846,4.411-2.376,5.941c-10.845,10.852-24.905,17.361-39.611,19.549l-44.412-44.4
			C288.672,254.727,299.984,251.917,311.727,251.917z M233.09,227.812l-99.122-91.453l8.137-8.137l91.471,99.104L233.09,227.812z
			 M72.383,63.97c25.789,11.058,46.042,28.998,57.611,50.908l-10.702,10.702c-35.928-14.407-63.487-43.027-76.523-78.442
			C51.932,53.835,61.833,59.433,72.383,63.97z"/>
		<path d="M86.946,361.805c2.574,3.079,5.923,4.231,8.281,4.843c5.059,1.242,10.117,1.296,14.582,1.35
			c5.383,0.054,10.046,0.108,13.178,2.052c4.411,2.736,6.067,9.937,6.679,14.024c0.342,2.214,0.54,4.465,0.774,6.697
			c0.613,6.049,1.243,12.278,3.655,18.615c1.944,5.077,4.752,9.11,8.299,11.954c5.148,4.159,11.143,5.455,16.778,5.455
			c6.373,0,12.314-1.639,16.058-2.737l-4.825-17.336c-6.463,1.746-13.466,3.24-16.76,0.576c-1.026-0.846-1.998-2.359-2.79-4.393
			c-1.548-4.051-2.052-8.875-2.556-13.97c-0.27-2.538-0.522-5.059-0.9-7.543c-1.836-12.494-7.021-21.729-14.96-26.644
			c-7.399-4.627-15.41-4.717-22.503-4.789c-1.171-0.018-2.341-0.018-3.475-0.072l35.411-32.675c3.042-2.791,3.78-7.273,1.818-10.892
			c-1.962-3.619-6.138-5.473-10.117-4.429c-15.051,3.835-30.587,5.851-46.141,5.995c8.947-16.472,24.573-29.704,42.288-35.717
			l-5.797-17.048c-23.44,7.975-43.134,25.294-54.026,47.509c-0.918,1.909-3.096,6.373-1.908,11.594
			c0.648,2.737,3.853,11.684,18.471,11.684c0.054,0,0.108,0,0.162,0c6.877-0.036,13.736-0.396,20.559-1.098l-16.13,14.888
			C82.175,347.925,82.643,356.764,86.946,361.805z"/>
	</g>
</g>
<g>
</g>
<g>
</g>
<g>
</g>
<g>
</g>
<g>
</g>
<g>
</g>
<g>
</g>
<g>
</g>
<g>
</g>
<g>
</g>
<g>
</g>
<g>
</g>
<g>
</g>
<g>
</g>
<g>
</g>
</svg>
