<?xml version="1.0" encoding="utf-8"?>
<!-- Generator: Adobe Illustrator 23.0.1, SVG Export Plug-In . SVG Version: 6.00 Build 0)  -->
<svg version="1.1" id="Livello_1" xmlns="http://www.w3.org/2000/svg" xmlns:xlink="http://www.w3.org/1999/xlink" x="0px" y="0px"
	 viewBox="0 0 512 512" style="enable-background:new 0 0 512 512;" xml:space="preserve">
<style type="text/css">
	.st0{fill:#2D28AD;}
</style>
<path class="st0" d="M316,216c-5.5,0-10,4.5-10,10s4.5,10,10,10s10-4.5,10-10S321.5,216,316,216z"/>
<path class="st0" d="M316,276c-5.5,0-10,4.5-10,10s4.5,10,10,10s10-4.5,10-10S321.5,276,316,276z"/>
<path class="st0" d="M76,316c-5.5,0-10,4.5-10,10s4.5,10,10,10s10-4.5,10-10S81.5,316,76,316z"/>
<path class="st0" d="M506.6,137.1c-3.3-1.7-7.3-1.5-10.3,0.7L412.9,196H386v-10c0-16.5-13.5-30-30-30h-37.2
	c16.6-14.7,27.2-36.1,27.2-60c0-44.1-35.9-80-80-80c-30.1,0-56.3,16.7-70,41.3C182.3,32.7,156.1,16,126,16c-44.1,0-80,35.9-80,80
	c0,23.9,10.5,45.3,27.2,60H30c-16.5,0-30,13.5-30,30v180c0,16.5,13.5,30,30,30h56v30c0,5.5,4.5,10,10,10h30v50c0,5.5,4.5,10,10,10
	h120c5.5,0,10-4.5,10-10v-50h30c5.5,0,10-4.5,10-10v-30h50c16.5,0,30-13.5,30-30v-30h26.9l83.4,58.2c3,2.1,7,2.4,10.3,0.7
	c3.3-1.7,5.4-5.1,5.4-8.9V146C512,142.3,509.9,138.9,506.6,137.1z M266,36c33.1,0,60,26.9,60,60c0,33.1-26.9,60-60,60
	s-60-26.9-60-60C206,62.9,232.9,36,266,36z M213.2,156h-34.3c6.9-6.1,12.7-13.3,17.2-21.3C200.5,142.7,206.3,149.9,213.2,156z
	 M66,96c0-33.1,26.9-60,60-60s60,26.9,60,60c0,33.1-26.9,60-60,60S66,129.1,66,96z M246,476H146v-40h100V476z M286,416H106v-20h180
	V416z M366,366c0,5.5-4.5,10-10,10H30c-5.5,0-10-4.5-10-10V186c0-5.5,4.5-10,10-10h326c5.5,0,10,4.5,10,10V366z M386,216h20v100h-20
	V216z M492,366.8l-66-46V211.2l66-46V366.8z"/>
<path class="st0" d="M126,66c-16.5,0-30,13.5-30,30s13.5,30,30,30s30-13.5,30-30S142.5,66,126,66z M126,106c-5.5,0-10-4.5-10-10
	c0-5.5,4.5-10,10-10s10,4.5,10,10C136,101.5,131.5,106,126,106z"/>
<path class="st0" d="M266,126c16.5,0,30-13.5,30-30s-13.5-30-30-30s-30,13.5-30,30S249.5,126,266,126z M266,86c5.5,0,10,4.5,10,10
	c0,5.5-4.5,10-10,10s-10-4.5-10-10C256,90.5,260.5,86,266,86z"/>
<path class="st0" d="M226,286v-60c0-5.5-4.5-10-10-10H76c-5.5,0-10,4.5-10,10v60c0,5.5,4.5,10,10,10h140
	C221.5,296,226,291.5,226,286z M206,276H86v-40h120V276z"/>
<path class="st0" d="M316,316H116c-5.5,0-10,4.5-10,10s4.5,10,10,10h200c5.5,0,10-4.5,10-10S321.5,316,316,316z"/>
</svg>
