<?xml version="1.0" encoding="utf-8"?>
<!-- Generator: Adobe Illustrator 23.0.1, SVG Export Plug-In . SVG Version: 6.00 Build 0)  -->
<svg version="1.1" id="Livello_1" xmlns="http://www.w3.org/2000/svg" xmlns:xlink="http://www.w3.org/1999/xlink" x="0px" y="0px"
	 viewBox="0 0 656 950" style="enable-background:new 0 0 656 950;" xml:space="preserve">
<style type="text/css">
	.st0{fill:#2D28AD;stroke:#000000;}
	.st1{fill:#FFE256;stroke:#000000;stroke-width:0.5;stroke-linecap:round;stroke-linejoin:round;}
	.st2{stroke:#000000;}
	.st3{fill:#FFE256;}
	.st4{fill:#A88E80;}
	.st5{fill:#F7D9CF;}
	.st6{fill:#C55241;}
	.st7{fill:#9C1D20;}
	.st8{fill:#C32627;}
	.st9{fill:#D75B4B;}
	.st10{fill:#CA352E;}
	.st11{fill:#D6A47C;}
	.st12{fill:#8E1A1F;}
	.st13{fill:#C92027;}
	.st14{fill:#951B22;}
	.st15{fill:#D72127;}
	.st16{fill:#F8CD2C;}
	.st17{fill:#120F0D;}
	.st18{fill:#A51E29;}
</style>
<g>
	<g>
		<polygon class="st0" points="132.5,315.5 392.6,674.7 450.2,646.8 339.7,210.6 		"/>
		<polygon class="st1" points="392,675.1 132.6,317.1 105.9,454.5 384.9,715.6 		"/>
		<polygon class="st1" points="450.6,647.4 340.3,210.3 470,312.4 479.6,664.2 		"/>
		<polygon class="st2" points="392.6,674.7 384.5,715 419.8,731.1 471.1,703.8 480,664.8 450.2,646.8 		"/>
	</g>
	<polygon class="st3" points="167.7,327.5 323.2,241.8 331.4,268.3 257.5,362.5 341.4,323.7 347.6,348 225,417.4 209.7,392.9 
		269.7,308.4 189.2,354.3 	"/>
	<polygon class="st3" points="236.5,431.3 348.1,368.4 369.8,426.6 352.5,435 336.7,400.7 312.3,413.6 319.4,427.5 301.3,434.7 
		294.5,423.9 263.1,440.4 274,460.3 256.7,468.7 	"/>
	<polygon class="st3" points="379.5,438 273,491.8 282.1,506.2 321.5,499.7 294.8,522.4 305.4,539.2 401.1,501.3 393.4,481.1 
		329.3,514.8 351.9,492.3 346.6,483.9 313.5,489.7 387.5,457.2 	"/>
	<path class="st3" d="M424,572.7l-13.8,8.1l-13.6-31.3c0,0-0.4-0.1-16.2,37.9c-15.8,38-31.6,18.2-31.6,18.2l-27.2-45.4l18.7-12
		l17.4,32.1l21.7-50.8l24.6-14L424,572.7z"/>
</g>
<g id="XMLID_12_">
	<g>
		<path class="st4" d="M612.1,385.5l-14.3-32c9.9,7.5,17.5,0.1,19.2-1.1l0,0L612.1,385.5z"/>
		<path class="st5" d="M414.4,455.4l-30.8-68.3c2.7,3.9,14.1,6.1,15.7-10.1l1.6,8.4L414.4,455.4z"/>
		<path class="st6" d="M414.4,455.4l-13.5-69.9c1,4.5,11.8,16.9,21.8,1.1L414.4,455.4z"/>
		<path class="st7" d="M618.7,341.2l-1.7,11.2l0,0c-1.7,1.2-9.3,8.7-19.2,1.1l-4.9-10.9l0.2-0.1c15.3,13.2,23.4-2.2,25.1-3.4
			L618.7,341.2z"/>
		<path class="st7" d="M435.7,382.4c-5.3,6.6-11.6-0.6-12.7-5l0,0l-5.5-152.1l16.9,1.5L435.7,382.4z"/>
		<path class="st8" d="M422.7,386.6c-10.1,15.8-20.8,3.3-21.8-1.1l-1.6-8.4L388,196.9l29.5,28.3l5.5,152.1l0.2,5L422.7,386.6
			L422.7,386.6z"/>
		<path class="st4" d="M595.2,228.3l23,110.8l0,0c-1.8,1.3-9.8,16.6-25.1,3.4l-0.2,0.1l-0.5-1.1l-23.2-87.8l0,0L595.2,228.3z"/>
		<path class="st5" d="M435.8,383.9l-21.3,71.5l8.3-68.8l0,0l0.5-4.2l-0.2-5l0,0c1,4.5,7.3,11.6,12.7,5L435.8,383.9z"/>
		<path class="st7" d="M383.1,386.1l-12.6-179.4l17.5-9.8l11.2,180.1c-1.6,16.2-13,14-15.7,10.1c0,0,0,0,0,0L383.1,386.1z"/>
		<path class="st7" d="M513.6,280.2l71.3-65.4l23.5-21.5c0,0,0,0,0,0c0.6-0.5,18.2-10.9,18.1,4.5l-31.4,30.6l-26,25.4l-75.3,73.5
			L513.6,280.2z"/>
		<polygon class="st9" points="513.6,280.2 508.8,161.6 529.2,160.6 530.3,240.4 		"/>
		<path class="st10" d="M513.6,280.2l16.7-39.7l28.6-26.6l0.9,3.9c2.6,3.8,10.9,3.4,18.4-0.9c1.9-1.1,3.6-2.3,5.1-3.6l1.7,1.5
			L513.6,280.2z"/>
		<path class="st4" d="M578.2,216.9c-7.6,4.3-15.8,4.7-18.4,0.9l-0.9-3.9l-2.5-11.5l-7.4-33.3c1.5,4.2,9.8,5.6,18.6,3
			c7.8-2.3,13.4-7,13.4-11l2.9,18l1.9,12l2.2,13.6c0.2,2.6-1.6,5.8-4.7,8.6C581.8,214.6,580.1,215.8,578.2,216.9z"/>
		<polygon class="st7" points="558.9,213.9 530.3,240.4 540.4,216.2 556.3,202.4 		"/>
		<polygon class="st7" points="540.4,216.2 530.3,240.4 529.2,160.6 541.4,164.1 		"/>
		<polygon class="st7" points="508.8,161.6 513.6,280.2 493.9,327.2 489,204.9 488.7,195.7 487.9,176.2 		"/>
		<path class="st10" d="M608.4,193.2l-23.5,21.5l-1.7-1.5c3.1-2.9,4.9-6.1,4.7-8.6l-2.2-13.6l0.1,0l17-14.5
			C607.8,173.8,619,180.5,608.4,193.2C608.4,193.2,608.4,193.2,608.4,193.2z"/>
		<path class="st11" d="M656.1,140.3l-11.3,22c2.7-7.7-2.2-11.9-8.2-13.2L656.1,140.3z"/>
		<path class="st9" d="M608.4,193.2c10.6-12.7-0.7-19.4-5.6-16.7c2.7-2.5,2.9-8.7-3.2-10.3l-0.1-0.2l37-16.8
			c5.9,1.3,10.9,5.5,8.2,13.2c0,0,0,0,0,0l-18.2,35.4C626.6,182.3,609.1,192.7,608.4,193.2z"/>
		<path class="st7" d="M599.7,166.2c6.1,1.7,5.9,7.8,3.2,10.3l-17,14.5l-0.1,0l-1.9-12l14.7-12.7l1-0.4L599.7,166.2z"/>
		<path class="st7" d="M580.8,159.6l0.2,1.4c-0.1,4-5.6,8.7-13.4,11c-8.8,2.6-17.1,1.3-18.6-3c-1.5-4.3,4.4-9.8,13.2-12.4
			C570.9,154,579.3,155.4,580.8,159.6z M566.7,166.5c3.4-1,5.6-3.4,4.9-5.3c-0.7-1.9-4-2.6-7.4-1.7c-3.4,1-5.6,3.4-4.9,5.3
			C560,166.7,563.3,167.5,566.7,166.5z"/>
		<path class="st5" d="M571.6,161.2c0.7,1.9-1.5,4.3-4.9,5.3c-3.4,1-6.7,0.3-7.4-1.7c-0.7-1.9,1.5-4.3,4.9-5.3
			C567.6,158.5,570.9,159.3,571.6,161.2z"/>
		<polygon class="st8" points="488.7,195.7 489,204.9 434.5,226.8 417.5,225.3 488,195.8 		"/>
		<polygon class="st7" points="488.7,195.7 488,195.8 417.5,225.3 388,196.9 506.1,142.5 541.4,164.1 529.2,160.6 508.8,161.6 
			487.9,176.2 		"/>
		<path class="st7" d="M586.6,131.8c-3.2-0.2,12.4-18.2-10.8-44.2l57.9,19.8L586.6,131.8z"/>
		<path class="st7" d="M564.2,137.1c6.7,5.1,13.6,7.5,15.3,7.7c-2.2-0.1-16.9,0.1-28.4-4.6c-11-4.5-18.9-13.6-9.9-31.7
			c-1.4-0.1-9.7-4.7-14.5-11.2c-6.6-8.9-6.7-21.2,25.5-30.7C536,78,536.6,87.8,541,94.2c3.5,5.2,9.4,8.3,10.8,8.4
			C547.4,119.4,555.6,130.5,564.2,137.1z"/>
		<path class="st10" d="M551.2,140.1l-9,2.9c-3.2-0.2-27.7-18.5-25.3-42.4l2.2-0.7l7.7-2.6l0,0c4.8,6.5,13.1,11.1,14.5,11.2
			C532.3,126.6,540.2,135.6,551.2,140.1z"/>
		<path class="st11" d="M578,113.7c1.4,2.1,0.7,4.9-1.7,6.2c-2,1.1-4.6,0.8-6.2-0.6c0-2.4,0.3-4.9,1.3-7.2
			C573.7,111,576.6,111.7,578,113.7z"/>
		<path class="st7" d="M576.3,119.9c2.4-1.3,3.1-4.1,1.7-6.2c-1.4-2-4.3-2.7-6.6-1.6c0.9-2.3,2.5-4.3,4.8-5.6
			c3.2,0.2,6.6,16.8-2.8,22c-1.6-0.1-3.3-4.4-3.3-9.2C571.7,120.8,574.3,121.1,576.3,119.9z"/>
		<polygon class="st7" points="579.6,102.8 560.7,107.2 553.6,92.4 549.3,83.4 560.8,90.8 		"/>
		<polygon class="st8" points="506.1,142.5 388,196.9 371.5,157.7 494.7,93.9 		"/>
		<path class="st8" d="M388,196.9l-17.5,9.8L217.3,123c-5-9.7,5.8-13.8,18.2-7.9c0,0,0,0,0,0l2.9,1.5L388,196.9z"/>
		<path class="st7" d="M388,196.9l-149.7-80.3c-16.6-9.9-13.2-20.1,3.1-18.7l0,0l130,59.8L388,196.9z"/>
		<path class="st10" d="M541,94.2l12.6-1.9l7.1,14.9l18.9-4.5l-18.7-12l15-3.3c23.2,26,7.6,44,10.8,44.2l-22.4,5.3
			c-8.6-6.6-16.8-17.7-12.4-34.5C550.4,102.5,544.5,99.4,541,94.2L541,94.2z M570.1,119.3c0.1,4.9,1.7,9.1,3.3,9.2
			c9.4-5.2,6-21.8,2.8-22c-2.3,1.3-3.9,3.3-4.8,5.6C570.4,114.4,570.1,116.9,570.1,119.3z"/>
		<path class="st9" d="M516.9,100.6c-2.4,23.9,22.1,42.2,25.3,42.4l-0.8,21.1l-35.4-21.6l-11.4-48.6l3.5-12.7L519,99.5l0.2,0.4
			L516.9,100.6z"/>
		<polygon class="st7" points="498.2,81.2 494.7,93.9 371.5,157.7 379.3,140.1 438.9,104.3 449.7,103.6 483.5,95.4 		"/>
		<polygon class="st9" points="498.2,81.2 483.5,95.4 446.2,52.7 474.4,60.6 		"/>
		<polygon class="st10" points="483.5,95.4 449.7,103.6 402.1,40.3 446.2,52.7 446.2,52.7 		"/>
		<path class="st8" d="M379.3,140.1l-7.7,17.6l-130-59.8c-11.1-12.2-5-15.5-0.7-17.9L379.3,140.1z"/>
		<polygon class="st9" points="449.7,103.6 438.9,104.3 383.7,35.1 402.1,40.3 		"/>
		<path class="st11" d="M577.1,20.4L555.1,32l-0.1-0.2c2.3-4.6,0-11.3-4.4-14.7L577.1,20.4z"/>
		<path class="st9" d="M555.1,32l-28.9,15.2c5.3-5.3-5.5-10.1-15.9-8.1c0.6-0.4,27.6-14-2.2-17.8c5-0.7,14.3-7.1,6.3-9l36.3,4.7
			c4.4,3.4,6.7,10.1,4.4,14.7L555.1,32z"/>
		<path class="st10" d="M526.2,47.2l-7.7,4l-44.2,9.4l-28.1-7.9l0,0l64-13.6l0,0C520.7,37.1,531.5,41.9,526.2,47.2z"/>
		<path class="st7" d="M508,21.4c29.8,3.8,2.9,17.4,2.2,17.8l0,0l-64,13.6l-44.2-12.4L508,21.4z"/>
		<path class="st10" d="M514.3,12.4c8,1.9-1.2,8.3-6.3,9l-106,18.9l-18.4-5.2L514.3,12.4z"/>
		<path class="st7" d="M238.4,116.7l-2.9-1.5C236.4,115.6,237.4,116.1,238.4,116.7z"/>
		<path class="st5" d="M233.5,114.1l2,1.1c-12.4-5.9-23.2-1.8-18.2,7.9L164.7,71L233.5,114.1z"/>
		<path class="st6" d="M233.5,114.1L164.7,71l76.1,26.6l0.8,0.4c-16.4-1.4-19.7,8.8-3.1,18.7c-1-0.6-1.9-1.1-2.9-1.5c0,0,0,0,0,0
			L233.5,114.1z"/>
		<path class="st5" d="M240.7,97.6L164.7,71l76.2,9c-4.4,2.4-10.4,5.8,0.7,17.9l0,0L240.7,97.6z"/>
	</g>
	<g>
	</g>
</g>
<g id="XMLID_8_">
	<g>
		<path class="st12" d="M392,738.3c7.1-1.6,13.5-6.3,18.5-13.3c3.8-5.2,6.7-11.7,8.4-19.1C405.3,711.6,398.1,724.5,392,738.3z"/>
		<path class="st13" d="M392,738.3l12,1.2c2.7-0.8,7.3-4,11.2-8.4c0,0,0,0,0,0l2.5-9.2l-5.1,7.9l5-13.3l-7.2,8.4l0,0
			C405.5,732,399.1,736.7,392,738.3z"/>
		<path class="st12" d="M415.2,731.2c-3.9,4.4-8.6,7.5-11.2,8.4l24.4,24.4l6.4,6.4c6.6-1.9,17-6.4,22.1-14.4
			c-14.2,5.6-43-6.5-32.7-32.8l0.1-0.1l-3.1-2.8C420.3,724.3,418,728,415.2,731.2C415.2,731.2,415.2,731.2,415.2,731.2z"/>
		<path class="st13" d="M456.9,756c-5.1,8-15.5,12.5-22.1,14.4l-6.4-6.4c-4.7,4-9.4,9-14.2,15.3c21.3,7.3,47.2-11.5,56.5-32.1
			c-2.4,0-8.6-0.2-16.9,2.3l4.7,3.8C458,754.2,457.5,755.1,456.9,756z"/>
		<path class="st14" d="M470.6,747.2c-9.2,20.6-35.2,39.4-56.5,32.1l15.2,30.9l19.6-30.2c2.4,0.2,4.5,0.8,6.4,1.7l0,0
			c4.2,2,7.4,5.6,10.1,9.5l-24.8,41.3l0.1,0.1l13.2,25.2l1.1,2c9.3-0.4,18.2-2.3,26.2-5.6c2.2-0.9,4.3-2,6.4-3.1
			c6.5-3.6,12.1-8.4,16.5-14.4c1.5-2,2.8-4.2,4-6.5c0.4-0.8,0.8-1.6,1.2-2.4l-20.6-43l-7.1-14.9l-3.1-6.5L470.6,747.2z"/>
		<path class="st15" d="M429.3,810.1l-12.2,18.8c4.6-0.1,8.8,1.4,11.9,3.8l0.1-0.1l-0.9-3.1l7.2,3l-4.5-6.7l6.6,3.6l-6.6-7.3
			l8.3,3.2l-5.2-6.5l8.1,3.3l-7-6.7l7.8,2.7l-5.7-6.3l9.1,3.4l-6.9-7l6.9,1.7l-6.1-4.4l8.3,2.7l-6.6-5.4l8.7,2.4l-6-5l7.3,1.8
			l-4.6-5l7.1,3.1l-5.4-6.5l7.5,3.3l-4.7-6.3l7,2.9l-5.8-7.4l7.9,4.3l-5.6-8.8l0,0c-1.9-0.9-4-1.5-6.4-1.7L429.3,810.1z"/>
		<path class="st16" d="M418.8,706c-1.7,7.4-4.6,13.9-8.4,19.1l0,0l7.2-8.4l-5,13.3l5.1-7.9l-2.5,9.2c2.8-3.1,5.1-6.9,6-10.9
			L418.8,706z"/>
		<path class="st17" d="M417.2,828.9c0.1,7.8,7.8,13.9,17.2,13.8c0-4-2.1-7.5-5.3-10C426,830.3,421.8,828.8,417.2,828.9z"/>
		<path class="st16" d="M424.2,723.2c-10.3,26.3,18.5,38.4,32.7,32.8c0.6-0.9,1.1-1.8,1.5-2.7c-10,4.1-42.5-1.8-32-28.4l-2.1-1.8
			L424.2,723.2z"/>
		<path class="st17" d="M426.4,724.9c-10.4,26.7,22,32.5,32,28.4l-4.7-3.8l-4.4-3.5l-2.5,1.4l-2.7-2.7l1.3-3.1l-4.1-3.3l-7,5l-1,0
			l-4.4-3.2l4.2-9.4L426.4,724.9z"/>
		<path class="st15" d="M453.9,857.7l-22.1,42.1c4.3,6.9,11,10.1,16.6,11.3l0.1-0.3l-7-6.3l11.6,1.1l-8-6.9l9.2,0.8l-5.6-5.4
			l6.6-1.1l-3.6-3.4l8.2-1l-6.1-3.9l8-1.4l-5.4-3.5l9-1.4l-8-3.7l10.8-1l0.2-0.3l-6.8-3.5l11.3-2l-8-2.7l8.8-3.5l-7.6,0.1l14.9-7.7
			c-8,3.3-16.9,5.2-26.2,5.6L453.9,857.7z"/>
		<path class="st16" d="M429.1,832.7c3.2,2.5,5.3,6.1,5.3,10l6.2-10.3l24.8-41.3c-2.7-3.9-5.9-7.5-10.1-9.5l5.6,8.8l-7.9-4.3
			l5.8,7.4l-7-2.9l4.7,6.3l-7.5-3.3l5.4,6.5l-7.1-3.1l4.6,5l-7.3-1.8l6,5l-8.7-2.4l6.6,5.4l-8.3-2.7l6.1,4.4l-6.9-1.7l6.9,7
			l-9.1-3.4l5.7,6.3l-7.8-2.7l7,6.7l-8.1-3.3l5.2,6.5l-8.3-3.2l6.6,7.3l-6.6-3.6l4.5,6.7l-7.2-3l0.9,3.1L429.1,832.7z"/>
		<path class="st12" d="M453.7,729.5c-3.9-1.4-11.7-2-14.3-13.1l-6.4,14.4l-4.2,9.4l4.4,3.2l1,0l7-5l7.9-5.6L453.7,729.5z"/>
		<path class="st13" d="M445.4,741.6l-1.3,3.1l2.7,2.7l0.6-5.1l1.1,2.4l0.8-4.6l1.5,2.2l0.5-4.4l1.9,1.9l0.5-3.9l2.2,2.7l0.3-4.8
			l3,3.4l-0.5-5.4l3.4,4.1l-1.2-7.5l4.1,3.3l-1.9-5.1c-1.7-1.6-3.5-3.4-4.6-4.9c-1.9-2.4-2.5-4.9-2.4-6.8l-3.6,9.1l0,0
			c0.8,1.7,1.3,3.5,1.3,5.4l-4.5,3.2L445.4,741.6z"/>
		<path class="st12" d="M447.4,742.3l-0.6,5.1l2.5-1.4l22.2-12.4c-2.3-1.3-4.4-3.4-6.5-5.2c-0.6-0.5-1.3-1.2-2.1-1.8l1.9,5.1
			l-4.1-3.3l1.2,7.5l-3.4-4.1l0.5,5.4l-3-3.4l-0.3,4.8l-2.2-2.7l-0.5,3.9l-1.9-1.9l-0.5,4.4l-1.5-2.2l-0.8,4.6L447.4,742.3z"/>
		<path class="st17" d="M453.7,729.5c0-1.9-0.5-3.8-1.3-5.4c-2.3-4.6-7.3-7.7-13-7.6C442,727.4,449.8,728.1,453.7,729.5z"/>
		<path class="st13" d="M473.6,712.5c-0.8,0.4-1.9,0.3-2.8,0.7c0.5,2,0.6,4.1,1.1,6.1c0.5,2.3,1.1,5.5,3,7c1,0.7,2.2,1.1,3.4,1.1
			c1.6,0,3.3-2.1,3.4-3.6c0.3,0.7,0.9,2.5,1.9,2.8c0.8,0.2,2.5-0.5,3.2-0.9c-0.7-0.5-1.1-1.4-1.5-2.1c-0.6-0.9-0.8-1.7-1.1-2.7
			c-0.3-1.1-1.2-9.2-1.6-10.4l-0.2,0c-0.3,0.4-1.9,0.5-2.7,0.6l0,0.2c0.2,0.2,2.4,8.5-0.3,10.7c-1.2,0.9-3.2,0.3-4-0.8
			C474.2,719.3,473.5,713.4,473.6,712.5L473.6,712.5z"/>
		<path class="st16" d="M478.4,763.4l3.1,6.5l5.5,6.8l-1-6.9l6.8,8.5l-1.2-7.5l6.4,8.5l-0.9-8.6l5.5,9.1l0.9-7.6l3.2,7.6l0.7-6.5
			l3.5,8.3l1-7l2.9,10.3l2.5-6.8l2.1,8.7l0,0c1.1-3.7,1.4-9-2.1-14.8L478.4,763.4z"/>
		<path class="st15" d="M481.5,769.9l7.1,14.9l27.9,7.3c0.2,0,1.9-2,2.8-5.2l0,0l-2.1-8.7l-2.5,6.8l-2.9-10.3l-1,7l-3.5-8.3
			l-0.7,6.5l-3.2-7.6l-0.9,7.6l-5.5-9.1l0.9,8.6l-6.4-8.5l1.2,7.5l-6.8-8.5l1,6.9L481.5,769.9z"/>
		<path class="st16" d="M486.4,853.3l1.1-2.3c-2,1.1-4.2,2.2-6.4,3.1l-14.9,7.7l7.6-0.1l-8.8,3.5l8,2.7l-11.3,2l6.8,3.5l-0.2,0.3
			l-10.8,1l8,3.7l-9,1.4l5.4,3.5l-8,1.4l6.1,3.9l-8.2,1l3.6,3.4l-6.6,1.1l5.6,5.4l-9.2-0.8l8,6.9l-11.6-1.1l7,6.3l-0.1,0.3
			c4.8,1,8.8,0.6,10.1-0.4L486.4,853.3z"/>
		<path class="st15" d="M486.4,853.3l41.6,48.6c6.5-0.1,11.4-2.8,15.1-6.5l0,0l2.7-7.2l-4.6,0.5l3.6-7l-7.2,4.1l1.8-8.1l-7.1,3.1
			l4.4-7.3l-8.9,3.9l3.8-7.1l-8.6,0.1l6.6-5.9l-10.4,2.9l5-8.3l-7.8,5.6l4.5-11l-7.7,6.7l3.9-11.8l-8.1,6.3l3.7-9.4l-7.6,4.6l4.2-9
			l-8.5,4.5l3.2-8.8c-4.4,6-10,10.7-16.5,14.4L486.4,853.3z"/>
		<path class="st16" d="M517.3,715c0.8,0.3,1.6,1.1,2.5,1.4l0,0.1c-0.7,0.6-4.1,5.4-4.4,7.5c-0.2,1.3,0.9,3.2,2.4,3.3
			c3.4,0.2,7.4-7.4,7.4-7.7l0.1-0.1c0.7,0.5,1.9,1.4,2.4,1.4l0.2,0.1c-0.5,1.1-5.3,7.7-5.8,8.7c-0.5,0.9-0.8,1.7-1,2.7
			c-0.2,0.8-0.5,1.8-0.3,2.6c-0.8-0.1-2.5-0.8-3-1.5c-0.6-0.8,0.2-2.6,0.4-3.3c-1.1,1-3.8,1.4-4.9,0.4c-0.9-0.8-1.5-1.9-1.7-3.1
			c-0.4-2.4,1.3-5.2,2.5-7.2C515,718.5,516.4,716.8,517.3,715z M532.6,722.7c0.7,0.5,1.2,1.4,1.9,1.9l0,0c-0.8,0.3-5.4,3.6-6.3,5.4
			c-0.6,1.1-0.1,3.1,1.2,3.6c3.1,1.2,9-4.5,9.1-4.7l0.2-0.1c0.5,0.6,1.3,1.8,1.7,1.9l0.1,0.1c-0.8,0.9-7.2,5.3-8,6.1
			c-0.8,0.7-1.3,1.2-1.8,2.1c-0.4,0.7-1,1.5-1.1,2.2c-0.7-0.3-2-1.4-2.3-2.2c-0.3-0.9,1-2.2,1.4-2.8c-1.3,0.6-3.9,0.2-4.6-1.1
			c-0.6-1-0.8-2.2-0.7-3.3c0.4-2.3,2.8-4.2,4.5-5.7C529.5,725,531.2,724,532.6,722.7z M479.6,711c0.8-0.1,2.4-0.2,2.7-0.6l0.2,0
			c0.4,1.1,1.3,9.3,1.6,10.4c0.3,1,0.5,1.8,1.1,2.7c0.4,0.7,0.9,1.7,1.5,2.1c-0.7,0.5-2.3,1.1-3.2,0.9c-1-0.2-1.6-2-1.9-2.8
			c-0.1,1.5-1.8,3.6-3.4,3.6c-1.2,0-2.4-0.4-3.4-1.1c-1.9-1.5-2.5-4.7-3-7c-0.4-2-0.6-4.1-1.1-6.1c0.8-0.3,2-0.3,2.8-0.7l0,0.1
			c-0.1,0.9,0.6,6.8,1.8,8.5c0.8,1.1,2.8,1.7,4,0.8c2.7-2.2,0.4-10.5,0.3-10.7L479.6,711z M486.5,710.7c0.9-0.1,2,0.1,2.9-0.1l0,0.1
			c-0.3,0.9-0.9,6.9-0.1,8.8c0.5,1.2,2.4,2.3,3.7,1.6c3.1-1.6,2.8-10.4,2.7-10.6l0-0.2c0.8,0,2.4,0.2,2.8-0.1l0.2,0
			c0.1,1.2-0.8,9.5-0.8,10.7c0,1.1,0.1,1.9,0.4,2.9c0.3,0.8,0.5,1.8,1,2.4c-0.7,0.3-2.5,0.6-3.3,0.3c-0.9-0.4-1.1-2.4-1.2-3.1
			c-0.4,1.4-2.6,3.2-4.1,2.9c-1.2-0.2-2.3-0.9-3.1-1.8c-1.6-1.9-1.4-5.2-1.4-7.6C486.1,714.8,486.5,712.7,486.5,710.7z M505.1,736.6
			c-0.7,2.5,0.4,6.2,2.7,7.6c3,1.7,7.1,0.3,8.5-2.9c0.1-0.2,0.1-0.4,0.2-0.6c-0.1,0.2-0.1,0.4-0.2,0.6c-0.9,2.7-0.7,5.6,1.5,7.7
			c3.1,2.9,6.4,1.4,7.8-2.6c-0.9,2.8-0.7,6.8,1,9.3c0.9,1.3,1.9,2.3,3.7,2c1.5-0.3,4-2.7,4.1-4.4c0,0.8,0,1.5,0.2,2.3
			c0.5,2.3,3.4,4,5.8,3.5c3.7-0.7,7.5-5.3,9.3-8.2c1.2-2,2.3-4.2,3.2-6.4c3.1-7.2,5.6-17.7-1.6-23.4c-2.4-1.9-7.1-2.6-9.1,0
			c1.6-2.8,0.9-5.7-2.2-7.3c-4.2-2.2-6.1,2.2-9,4c0.8-2.9,1.6-4.9-1.2-7.1c-3.3-2.7-7.6-0.6-10.1,2.3c1.1-3.2,0.3-8.7-2.8-10.1
			c-1.5-0.7-4.2-1.2-5.7-0.4c-2.2,1.2-3.2,3.9-4.5,5.8c0.6-3.1-1.3-7-4.4-7.7c-4.3-1-7.2,3.3-8.1,7c0-3.2-1-6.9-4.6-7.5
			c-3.9-0.6-7.4,1.8-7,6c-0.6-3.2-3.1-5.9-6.6-5.2c-3.3,0.6-5,3.4-4.5,6.5c-1.2-2.6-5.1-2.6-7.3-1.5c-1.9,1-4.3,4.4-1.9,6.4
			c-0.6-0.6-1.4-1-2.4-1.1c-2.2-0.3-3.9,1.4-4,3.9l0,0c-0.1,1.9,0.5,4.3,2.4,6.8c1.1,1.5,2.9,3.3,4.6,4.9c0.7,0.7,1.5,1.3,2.1,1.8
			c2.1,1.8,4.2,3.9,6.5,5.2c0,0,0.7,1,2.2,0.6c1.3,1.9,7.6,4.4,7.4,0.2c0.9,1.2,1.8,2.2,3.3,2.3c1.3,0.1,2.7-0.5,2.8-1.7
			c-0.2-0.4-0.2-0.8-0.2-1.1c0.2,0.4,0.2,0.8,0.2,1.1c0.6,1.6,2.7,3.4,4,3.5c2.9,0.4,4.1-3.1,4.1-5.3c0.3,2.4,1.4,4.8,3.5,6.2
			C501.4,741.2,504.3,739.1,505.1,736.6z M512.4,713.7c0.7,0.3,2,1,2.4,0.9l0.2,0.1c-0.3,1.1-4.4,7.9-4.8,8.9
			c-0.4,0.9-0.6,1.7-0.7,2.7c-0.1,0.8-0.3,1.7-0.1,2.4c-0.8,0-2.4-0.3-3-0.9c-0.6-0.7-0.1-2.4,0.1-3.1c-0.9,1.1-3.5,1.9-4.7,1.1
			c-0.9-0.6-1.6-1.5-1.9-2.6c-0.6-2.1,0.8-5,1.7-7c0.8-1.8,2-3.5,2.7-5.3c0.8,0.2,1.7,0.8,2.5,0.9l0,0.1c-0.6,0.6-3.4,5.6-3.5,7.5
			c0,1.2,1.2,2.8,2.6,2.6c3.3-0.3,6.4-7.9,6.4-8.2L512.4,713.7z"/>
		<path class="st13" d="M498.4,710.1c-0.4,0.3-2,0.1-2.8,0.1l0,0.2c0.1,0.2,0.4,9-2.7,10.6c-1.3,0.7-3.2-0.3-3.7-1.6
			c-0.8-2-0.2-8,0.1-8.8l0-0.1c-0.9,0.2-2,0-2.9,0.1c0.1,2.1-0.3,4.2-0.3,6.2c0,2.4-0.2,5.7,1.4,7.6c0.8,0.9,1.9,1.5,3.1,1.8
			c1.5,0.3,3.7-1.5,4.1-2.9c0.1,0.8,0.3,2.7,1.2,3.1c0.8,0.3,2.6,0,3.3-0.3c-0.5-0.6-0.7-1.6-1-2.4c-0.3-1-0.4-1.8-0.4-2.9
			c0-1.1,1-9.5,0.8-10.7L498.4,710.1z"/>
		<path class="st16" d="M504,836.6l-3.2,8.8l8.5-4.5l-4.2,9l7.6-4.6l-3.7,9.4l8.1-6.3l-3.9,11.8l7.7-6.7l-4.5,11l7.8-5.6l-5,8.3
			l10.4-2.9l-6.6,5.9l8.6-0.1l-3.8,7.1l8.9-3.9l-4.4,7.3l7.1-3.1l-1.8,8.1l7.2-4.1l-3.6,7l4.6-0.5l-2.7,7.2l0,0c4-4,6.5-9.1,7.8-13
			l-43-52.2C506.8,832.4,505.4,834.6,504,836.6z"/>
		<path class="st13" d="M501.6,716.3c-0.9,2-2.4,4.8-1.7,7c0.3,1.1,1,2,1.9,2.6c1.2,0.8,3.7,0,4.7-1.1c-0.2,0.7-0.8,2.4-0.1,3.1
			c0.5,0.6,2.2,0.9,3,0.9c-0.2-0.7,0-1.7,0.1-2.4c0.1-1,0.3-1.7,0.7-2.7c0.4-1,4.5-7.8,4.8-8.9l-0.2-0.1c-0.5,0.1-1.7-0.6-2.4-0.9
			l-0.1,0.2c0,0.3-3.1,7.9-6.4,8.2c-1.4,0.1-2.6-1.4-2.6-2.6c0.1-1.9,2.9-6.9,3.5-7.5l0-0.1c-0.8-0.1-1.7-0.7-2.5-0.9
			C503.6,712.8,502.4,714.5,501.6,716.3z"/>
		<path class="st13" d="M523.5,732c-0.2,1.1,0.1,2.3,0.7,3.3c0.7,1.3,3.3,1.7,4.6,1.1c-0.5,0.6-1.7,1.9-1.4,2.8
			c0.2,0.8,1.6,1.8,2.3,2.2c0.1-0.7,0.7-1.6,1.1-2.2c0.5-0.9,1-1.4,1.8-2.1c0.8-0.7,7.2-5.2,8-6.1l-0.1-0.1
			c-0.5-0.1-1.2-1.3-1.7-1.9l-0.2,0.1c-0.1,0.2-6,5.9-9.1,4.7c-1.3-0.5-1.8-2.5-1.2-3.6c0.9-1.8,5.5-5.1,6.3-5.4l0,0
			c-0.7-0.5-1.2-1.4-1.9-1.9c-1.4,1.3-3.1,2.4-4.6,3.7C526.3,727.8,523.9,729.7,523.5,732z"/>
		<path class="st13" d="M527.7,720.8c-0.5,0-1.7-0.9-2.4-1.4l-0.1,0.1c0,0.3-4,7.9-7.4,7.7c-1.5-0.1-2.6-1.9-2.4-3.3
			c0.3-2.1,3.7-6.9,4.4-7.5l0-0.1c-0.9-0.3-1.7-1-2.5-1.4c-1,1.8-2.3,3.4-3.3,5.2c-1.2,2-2.9,4.8-2.5,7.2c0.2,1.2,0.9,2.3,1.7,3.1
			c1.2,1.1,3.8,0.7,4.9-0.4c-0.3,0.7-1,2.5-0.4,3.3c0.5,0.7,2.2,1.4,3,1.5c-0.2-0.8,0.2-1.8,0.3-2.6c0.2-1.1,0.5-1.8,1-2.7
			c0.5-1,5.4-7.6,5.8-8.7L527.7,720.8z"/>
	</g>
	<g>
	</g>
</g>
<g id="XMLID_10_">
	<g>
		<path class="st18" d="M88.4,495.2c1.1-0.6,2.6-0.8,3.6-1.4l0,0.1c0,1.2,2.2,9,4.2,11.1c1.3,1.3,4.2,1.8,5.6,0.3
			c3.2-3.4-1.5-14.3-1.8-14.5l-0.1-0.2c1-0.3,3-0.8,3.5-1.3l0.3-0.2c0.8,1.5,3.6,12.3,4.2,13.8c0.5,1.4,1.1,2.3,2,3.5
			c0.7,0.9,1.5,2.1,2.5,2.6c-0.8,0.7-3,2-4.1,1.9c-1.4-0.1-2.6-2.4-3.1-3.3c0.2,2-1.7,5.2-3.9,5.5c-1.6,0.2-3.4,0-4.8-0.9
			c-2.9-1.6-4.4-5.9-5.5-8.9C90.1,500.5,89.5,497.7,88.4,495.2z"/>
		<path class="st14" d="M210.4,609.6c0.8,0.5,1,1.5,0.6,3.2c-0.4,1.7-1.8,4.7-4.2,8.9c-1.6,2.9-2.9,5-3.9,6.2
			c-0.9,1.3-1.8,2.1-2.5,2.5c-0.7,0.4-1.4,0.5-1.9,0.2c-0.8-0.4-1-1.5-0.5-3.2c0.4-1.7,1.8-4.6,4.1-8.7c2.3-4,4-6.7,5.2-7.9
			C208.5,609.5,209.6,609.2,210.4,609.6z"/>
		<path class="st18" d="M48,539.4c0.8,0.9,7.7,5.2,10.6,5.4c1.8,0.1,4.3-1.5,4.3-3.5c0.1-4.7-10.7-9.5-11.1-9.5l-0.4,0.2
			c0.4-0.9,2-3,1.9-3.7l0.1-0.2c1.6,0.5,11,6.7,12.4,7.3c1.3,0.6,2.4,1,3.8,1.2c1.1,0.1,2.5,0.5,3.6,0.2c-0.1,1.1-0.9,3.4-1.8,4.2
			c-1.1,0.9-3.6,0-4.6-0.3c1.5,1.4,2.2,5,0.9,6.7c-1,1.3-2.5,2.3-4.1,2.6c-3.3,0.8-7.2-1.4-10-2.8c-2.5-1.3-4.8-2.9-7.3-4.1
			C46.6,541.7,47.6,540.6,48,539.4L48,539.4z"/>
		<path class="st12" d="M195.9,465.9c7.6,2.6,15.3,3.2,19,2.4l-12.5,45.6l-3.3,12c-9.2,2.2-24.6,3.8-36.1-2.2
			c20.6-2.9,46.8-36.8,16.7-61.2l-0.2-0.1l1.8-5.4C185.1,461.2,190.4,464.1,195.9,465.9z"/>
		<path class="st18" d="M57.1,524.1c0.6-1.1,1.8-2,2.4-3.1l0.1,0c0.6,1.1,6.5,6.9,9.2,7.8c1.7,0.5,4.4-0.5,4.9-2.6
			c1-4.7-8.5-12-8.9-12l-0.4,0.1c0.6-0.8,2.5-2.5,2.6-3.3l0.2-0.2c1.4,0.9,9.4,9.2,10.6,10.1c1.2,0.9,2.1,1.5,3.5,2.1
			c1,0.4,2.3,1.1,3.4,1c-0.3,1.1-1.5,3.2-2.6,3.8c-1.2,0.6-3.5-0.8-4.4-1.4c1.2,1.7,1.2,5.5-0.5,6.9c-1.3,1-2.9,1.7-4.5,1.7
			c-3.3,0-6.7-3.1-9.2-5.1C61.2,528,59.3,525.8,57.1,524.1z"/>
		<path class="st16" d="M193.6,659.4l-2.9-2c3.2,0,6.5-0.2,9.7-0.6l23-0.9l-9.1,5l12.8-1.8l-7.7,8.6l14.8-5.2l-5.7,8.8l0.4,0.3
			l13.6-6l-7,9.8l11.7-4.4l-4.1,7.8l10.4-3.7l-4.7,8.7l10.5-4.3l-2,6.5l8.6-3.1l-3.1,10.2l10.4-7.2l-4.9,13.6l13.1-9.1l-4.1,12.2
			l0.2,0.3c-5,4.4-10.1,6.6-12.2,6.4L193.6,659.4z"/>
		<path class="st18" d="M82.7,499.3c0.9-0.5,2.8-1.2,3.1-1.8l0.2-0.1c0.9,1.3,4.6,11.5,5.3,12.8c0.6,1.3,1.2,2.1,2.2,3.1
			c0.7,0.7,1.6,1.8,2.5,2.2c-0.6,0.8-2.4,2.3-3.5,2.4c-1.3,0.1-2.6-2-3.2-2.8c0.4,1.9-1,5.3-2.8,5.9c-1.4,0.5-3,0.4-4.4-0.2
			c-2.8-1.2-4.6-5.2-5.9-7.9c-1.2-2.4-2-5.1-3.2-7.4c0.9-0.7,2.2-1.1,3.1-1.9l0.1,0.1c0.2,1.2,3,8.5,5,10.3c1.3,1.1,3.9,1.1,5-0.5
			c2.5-3.8-2.9-13.7-3.2-13.9L82.7,499.3z"/>
		<path class="st16" d="M161.5,651.4l9.8,8.4l-13.1,0.4l11,7.9l-12.2-0.3l10.8,8.6l-13.9-2l12.7,11.4l-13.7-2.8l12.8,10l-13-1.3
			l11.5,6.6l-14.3,3.5l11.8,2.5l-10.3,5.7l9.4,5.9l-13.3,1.4l10.2,5.8l-10.5,1l7.6,8.5l-11.4,0l9,5.9l-5.8,2.5l8.1,6.8
			c-7.5-2-13.9-6.4-18.1-10.1l15.9-91.2l0,0C155.3,648.4,158.3,650,161.5,651.4C161.5,651.4,161.5,651.4,161.5,651.4z"/>
		<path class="st12" d="M228.3,458.8c-9.5,2.9-20.4,1.6-31-3.3c-8-3.7-15.9-9.5-22.9-17.1C194.4,435.9,211.8,446.4,228.3,458.8z"/>
		<path class="st16" d="M179.7,462.5c30.1,24.4,3.9,58.3-16.7,61.2c-1.3-0.6-2.5-1.4-3.6-2.2c14.7-1.9,49.4-30.8,18.9-55.4l1.2-3.6
			L179.7,462.5z"/>
		<path class="st12" d="M148.9,489.9c3.7-4.2,12.6-10.3,8.2-25.3l17.3,12.8l11.3,8.4l-3.1,6.8l-1.2,0.7l-11.8-1.2l-13.2-1.4
			L148.9,489.9z"/>
		<path class="st15" d="M235.3,642.6l54.7,35.2c-0.5,11.1-6.3,19.5-12.2,24.7l-0.2-0.3l4.1-12.2l-13.1,9.1l4.9-13.6l-10.4,7.2
			l3.1-10.2l-8.6,3.1l2-6.5l-10.5,4.3l4.7-8.7l-10.4,3.7l4.1-7.8l-11.7,4.4l7-9.8l-13.6,6l-0.4-0.3l5.7-8.8l-14.8,5.2l7.7-8.6
			l-12.8,1.8l9.1-5l-23,0.9c11.7-1.4,23.6-5.3,34.9-11L235.3,642.6z"/>
		<path class="st16" d="M142.5,547l0.7,9.8l-1.9,11.8l-3.5-8.9l-2.4,14.8l-3.7-9.8l-1.8,14.4l-4.7-10.9l-0.4,14.5l-6.3-8.5l1.3,11.2
			l-5.2-7.3l1.5,12.2l-6-7.7l3.5,14.3l-7.6-6.3l3.5,11.8c-3.9-3.6-7.8-9.8-7.5-19L142.5,547z"/>
		<path class="st12" d="M165.3,504.5l-0.3-3.5l4.2,5.7l-4,0l-34.7,0.2c1.8-3.1,2.9-7.1,4.2-10.6c0.4-1,0.8-2.3,1.2-3.6l1.2,7.4
			l2.6-6.7l3.6,9.7l1.3-7.1l3.1,6.8l1.2-6l3.6,5.5l0.8-4.6l3.3,4.3l1-3.6l3.5,4.9l0.3-3.6L165.3,504.5z"/>
		<path class="st14" d="M140.7,522.4c24.9,18.2,68.5,23.2,88.9,0l2.8,47l-43.7-22.7c-2.7,1.9-4.8,4-6.5,6.4l0,0
			c-3.7,5.3-5,11.6-5.6,18.1l57.4,32.4l-0.1,0.2l1.3,38.9l0.1,3.1c-11.3,5.8-23.2,9.6-34.9,11c-3.3,0.4-6.5,0.6-9.7,0.6
			c-10.1,0-20-1.8-29.3-6c0,0,0,0,0,0c-3.1-1.4-6.2-3.1-9.1-5c-1-0.7-2-1.3-3-2.1l-2.5-35.7l-1.1-15.2l-1-14.2l-1.6-22.5l-0.7-9.8
			L140.7,522.4z M211.1,612.9c0.4-1.7,0.2-2.8-0.6-3.2c-0.8-0.5-1.9-0.1-3.1,1.2c-1.2,1.3-3,3.9-5.2,7.9c-2.3,4.1-3.7,6.9-4.1,8.7
			c-0.4,1.7-0.2,2.8,0.5,3.2c0.5,0.3,1.1,0.2,1.9-0.2c0.7-0.4,1.6-1.3,2.5-2.5c1-1.3,2.2-3.3,3.9-6.2
			C209.3,617.5,210.6,614.6,211.1,612.9z"/>
		<path class="st15" d="M193.6,659.4L177,745.3c-7.7,4.3-15.5,4.3-22.4,2.4l-8.1-6.8l5.8-2.5l-9-5.9l11.4,0l-7.6-8.5l10.5-1
			l-10.2-5.8l13.3-1.4l-9.4-5.9l10.3-5.7l-11.8-2.5l14.3-3.5l-11.5-6.6l13,1.3l-12.8-10l13.7,2.8l-12.7-11.4l13.9,2l-10.8-8.6
			l12.2,0.3l-11-7.9l13.1-0.4l-9.8-8.4c9.2,4.1,19.1,6,29.3,6L193.6,659.4z"/>
		<path class="st13" d="M228.3,458.8l-13.5,9.5c-3.7,0.8-11.4,0.2-19-2.4l-9.2-9.2l11.4,6l-15-12.4l14.2,5.2l0,0
			C208,460.4,218.8,461.7,228.3,458.8z"/>
		<path class="st15" d="M143.1,556.8l1.6,22.5l-28.3,27.5c-0.3,0.2-3.6-1.1-6.9-4.3l-3.5-11.8l7.6,6.3l-3.5-14.3l6,7.7l-1.5-12.2
			l5.2,7.3l-1.3-11.2l6.3,8.5l0.4-14.5l4.7,10.9l1.8-14.4l3.7,9.8l2.4-14.8l3.5,8.9L143.1,556.8z"/>
		<path class="st17" d="M259.5,583.6c5.1,9.3,0.2,21.9-11.1,28.1c-2.6-4.7-2.6-10.4-0.5-15.5C250,591.2,254,586.6,259.5,583.6z"/>
		<path class="st13" d="M163,523.7c11.5,6,26.8,4.4,36.1,2.2l3.3-12c8.3,1.7,17.4,4.4,27.3,8.5c-20.4,23.1-64,18.2-88.9,0
			c2.9-1.6,10.1-6,21.7-8.6l-3,7.7C160.5,522.3,161.7,523,163,523.7z"/>
		<path class="st15" d="M181.4,567.4l0.8-14.3l0,0c1.6-2.4,3.7-4.5,6.5-6.4l43.7,22.7l27.1,14.1c-5.5,3-9.5,7.6-11.6,12.6l-0.2-0.1
			l-1-4.3l-6.6,8.5l0.8-11l-5.4,8.8l2.9-13.2l-7.8,9.4l1.8-11.2l-7.5,9.4l3.8-12.6l-7.5,8.5l2.6-11.4l-8.5,10.3l3.5-13l-7,6.6
			l4.2-9.4l-8.1,8.8l4.2-11l-8.7,8.8l3.8-10l-7.5,7.1l2.1-9.1l-6.4,8.5l2.1-11.4l-6.7,9l1.3-10.7l-6.4,8.2l1.9-12.7L181.4,567.4z"/>
		<path class="st16" d="M248,596.1c-2.2,5.2-2.2,10.8,0.5,15.5l-14.4-8.1l-57.4-32.4c0.6-6.5,1.9-12.8,5.6-18.1l-0.8,14.3l6.4-10.5
			l-1.9,12.7l6.4-8.2L191,572l6.7-9l-2.1,11.4l6.4-8.5l-2.1,9.1l7.5-7.1l-3.8,10l8.7-8.8l-4.2,11l8.1-8.8l-4.2,9.4l7-6.6l-3.5,13
			l8.5-10.3l-2.6,11.4l7.5-8.5l-3.8,12.6l7.5-9.4l-1.8,11.2l7.8-9.4l-2.9,13.2l5.4-8.8l-0.8,11l6.6-8.5l1,4.3L248,596.1z"/>
		<path class="st16" d="M92.5,533.1c2.5,2.6,3.8,7.6,1.9,10.9c-2.4,4.1-8.2,5.1-12,2.3c-0.2-0.2-0.4-0.4-0.6-0.5
			c0.2,0.2,0.4,0.4,0.6,0.5c2.9,2.5,4.6,6.2,3.4,10.1c-1.7,5.6-6.7,6-11,2.2c3,2.8,5.5,7.6,5.1,11.7c-0.2,2.2-0.7,4.1-3,4.9
			c-2,0.7-6.6-0.6-7.9-2.5c0.5,1,1,1.8,1.3,2.8c1,3.1-1.3,7-4.6,8.1c-4.9,1.7-12.5-1.2-16.7-3.5c-2.8-1.6-5.5-3.5-8.1-5.4
			c-8.5-6.5-18.6-17.3-13.9-28.9c1.5-3.8,6.8-7.9,10.9-6.2c-3.8-2.3-4.9-6.2-2.4-10.2c3.5-5.5,8.8-1.5,13.4-1.3
			c-2.9-2.9-5.2-4.7-3.4-9.3c2.2-5.5,8.6-5.9,13.6-4.2c-3.5-3-6.2-10.1-3.5-14c1.3-1.9,4.1-4.3,6.6-4.3c3.4-0.1,6.4,2.6,9.2,3.9
			c-2.8-3.2-3.2-9.2,0-12.2c4.5-4.1,10.7-1,14.3,2.8c-2.1-3.7-3.5-8.9,0.5-12c4.2-3.3,10.1-2.8,12.4,2.3c-1.4-4.2-0.3-9.1,4.3-10.7
			c4.4-1.5,8.3,0.7,9.7,4.7c-0.3-3.9,4.3-6.6,7.7-6.7c3-0.1,8,2.3,6.6,6.3c0.4-1.1,1-2.2,2-3c2.4-1.9,5.5-1,7.4,1.9l0,0
			c1.5,2.2,2.3,5.5,1.7,9.7c-0.3,2.5-1.3,5.9-2.2,9c-0.4,1.3-0.8,2.6-1.2,3.6c-1.3,3.5-2.3,7.5-4.2,10.6c0,0-0.1,1.7-2.2,2.3
			c-0.3,3.2-6.1,10.3-8.7,5.2c-0.2,2-0.7,3.8-2.4,5c-1.4,1-3.5,1.2-4.5-0.1c-0.1-0.6-0.3-1.1-0.5-1.4c0.1,0.6,0.2,1.1,0.5,1.4
			c0.3,2.4-1,5.9-2.4,6.9c-3.2,2.4-6.9-1-8.4-3.6c1.2,3.1,1.6,6.7,0,9.8C100,536.2,95.2,535.5,92.5,533.1z M73.2,536.7
			c-1.1,0.3-2.5-0.1-3.6-0.2c-1.5-0.2-2.5-0.6-3.8-1.2c-1.4-0.7-10.8-6.8-12.4-7.3l-0.1,0.2c0.1,0.8-1.5,2.8-1.9,3.7l0.4-0.2
			c0.4,0,11.1,4.8,11.1,9.5c0,2-2.5,3.7-4.3,3.5c-2.9-0.2-9.7-4.5-10.6-5.4l-0.1,0c-0.3,1.2-1.3,2.4-1.7,3.5
			c2.5,1.2,4.8,2.9,7.3,4.1c2.8,1.4,6.8,3.6,10,2.8c1.6-0.4,3.1-1.3,4.1-2.6c1.3-1.7,0.6-5.3-0.9-6.7c1,0.3,3.5,1.2,4.6,0.3
			C72.3,540.2,73.1,537.8,73.2,536.7z M72.6,535c1.6,0,3.3-0.6,4.5-1.7c1.6-1.4,1.6-5.2,0.5-6.9c0.9,0.5,3.1,2,4.4,1.4
			c1-0.5,2.3-2.7,2.6-3.8c-1.1,0-2.4-0.6-3.4-1c-1.4-0.5-2.3-1.1-3.5-2.1c-1.2-1-9.2-9.2-10.6-10.1l-0.2,0.2c-0.1,0.8-2,2.5-2.6,3.3
			l0.4-0.1c0.4,0.1,9.9,7.3,8.9,12c-0.4,2-3.1,3.1-4.9,2.6c-2.7-0.9-8.6-6.7-9.2-7.8l-0.1,0c-0.6,1.1-1.7,2.1-2.4,3.1
			c2.2,1.7,4.2,4,6.3,5.8C65.9,531.9,69.3,535,72.6,535z M109.7,485.6c0.2,2.7-0.2,5.4-0.1,8c0.1,3,0.1,7.3,2.2,9.6
			c1,1.1,2.5,1.9,4,2.1c2,0.3,4.6-2.1,5.1-3.9c0.2,1,0.6,3.4,1.8,3.9c1,0.4,3.3-0.1,4.3-0.5c-0.7-0.8-1-2.1-1.4-3.1
			c-0.5-1.3-0.6-2.3-0.7-3.7c-0.1-1.5,0.7-12.2,0.5-13.7l-0.3,0.1c-0.6,0.3-2.5,0.1-3.5,0.2l0,0.2c0.2,0.3,1,11.5-2.9,13.7
			c-1.7,1-4.1-0.3-4.8-1.8c-1.1-2.5-0.6-10.2-0.3-11.3l0-0.1C112.3,485.6,110.9,485.4,109.7,485.6z M82.7,499.3l0.1,0.2
			c0.3,0.2,5.7,10.1,3.2,13.9c-1.1,1.6-3.7,1.6-5,0.5c-2-1.8-4.8-9.1-5-10.3l-0.1-0.1c-0.9,0.8-2.2,1.2-3.1,1.9
			c1.3,2.4,2.1,5,3.2,7.4c1.3,2.7,3.1,6.7,5.9,7.9c1.4,0.6,3,0.6,4.4,0.2c1.9-0.6,3.2-4,2.8-5.9c0.6,0.8,1.9,2.9,3.2,2.8
			c1.1-0.1,2.9-1.6,3.5-2.4c-0.9-0.4-1.8-1.4-2.5-2.2c-1-1-1.5-1.8-2.2-3.1c-0.7-1.3-4.4-11.5-5.3-12.8l-0.2,0.1
			C85.5,498,83.7,498.8,82.7,499.3z M92.1,493.7c-1,0.7-2.6,0.9-3.6,1.4c1.1,2.6,1.6,5.4,2.6,8c1.1,3,2.6,7.2,5.5,8.9
			c1.4,0.8,3.2,1.1,4.8,0.9c2.1-0.3,4-3.5,3.9-5.5c0.5,0.9,1.8,3.2,3.1,3.3c1.2,0.1,3.3-1.1,4.1-1.9c-1-0.5-1.8-1.7-2.5-2.6
			c-0.9-1.1-1.4-2.1-2-3.5c-0.6-1.4-3.4-12.3-4.2-13.8l-0.3,0.2c-0.5,0.5-2.5,0.9-3.5,1.3l0.1,0.2c0.3,0.2,5,11.1,1.8,14.5
			c-1.4,1.5-4.3,1-5.6-0.3C94.3,502.8,92.1,495,92.1,493.7L92.1,493.7z"/>
		<path class="st17" d="M148.9,489.9c-1.3-2.3-2-4.8-2.1-7.4c-0.4-7,3.4-14.1,10.3-17.9C161.4,479.6,152.5,485.7,148.9,489.9z"/>
		<path class="st13" d="M167,498.8l3.7,2.8l-1.4,5.1l-4.2-5.7l0.3,3.5l-4-4.9l-0.3,3.6l-3.5-4.9l-1,3.6l-3.3-4.3l-0.8,4.6l-3.6-5.5
			l-1.2,6l-3.1-6.8l-1.3,7.1l-3.6-9.7l-2.6,6.7l-1.2-7.4c1-3,1.9-6.5,2.2-9c0.5-4.2-0.3-7.5-1.7-9.7l10.4,8.5l0,0
			c0.1,2.5,0.8,5,2.1,7.4l7.5,0.8L167,498.8z"/>
		<path class="st16" d="M181.3,457l-6.8-18.7c7,7.6,14.9,13.4,22.9,17.1l0,0l-14.2-5.2l15,12.4l-11.4-6l9.2,9.2
			C190.4,464.1,185.1,461.2,181.3,457z"/>
		<path class="st18" d="M125,484.4l0.3-0.1c0.3,1.5-0.6,12.3-0.5,13.7c0.1,1.4,0.2,2.4,0.7,3.7c0.4,1,0.7,2.3,1.4,3.1
			c-0.9,0.5-3.2,0.9-4.3,0.5c-1.2-0.5-1.6-3-1.8-3.9c-0.5,1.9-3.1,4.3-5.1,3.9c-1.5-0.2-3-1-4-2.1c-2.1-2.3-2.1-6.6-2.2-9.6
			c-0.1-2.7,0.3-5.4,0.1-8c1.1-0.2,2.5,0,3.7-0.3l0,0.1c-0.3,1.1-0.8,8.8,0.3,11.3c0.7,1.6,3.1,2.8,4.8,1.8c3.9-2.2,3-13.4,2.9-13.7
			l0-0.2C122.5,484.5,124.3,484.7,125,484.4z"/>
		<path class="st17" d="M178.3,466c30.4,24.7-4.2,53.6-18.9,55.4l3-7.7l2.8-7.1l4,0l1.4-5.1l-3.7-2.8l2.6-6.7l11.8,1.2l1.2-0.7
			l3.1-6.8l-11.3-8.4L178.3,466z"/>
	</g>
	<g>
	</g>
</g>
</svg>
