<?xml version="1.0" encoding="utf-8"?>
<!-- Generator: Adobe Illustrator 23.0.1, SVG Export Plug-In . SVG Version: 6.00 Build 0)  -->
<svg version="1.1" id="Livello_1" xmlns="http://www.w3.org/2000/svg" xmlns:xlink="http://www.w3.org/1999/xlink" x="0px" y="0px"
	 viewBox="0 0 487 487" style="enable-background:new 0 0 487 487;" xml:space="preserve">
<style type="text/css">
	.st0{fill:#2D28AD;}
</style>
<path class="st0" d="M483,343.2v-71.9c0-22-17.9-39.9-39.9-39.9h-31.9v-79.9c0-4.4-3.6-8-8-8h-47.9c-4.4,0-8,3.6-8,8v79.9h-71.9
	v-95.8c0-4.4-3.6-8-8-8h-47.9c-4.4,0-8,3.6-8,8v95.8h-71.9v-79.9c0-4.4-3.6-8-8-8H83.7c-4.4,0-8,3.6-8,8v79.9H43.7
	c-22,0-39.9,17.9-39.9,39.9v71.9c-0.3,17.1,8.9,33,24,41.3V471h-16c-4.4,0-8,3.6-8,8c0,4.4,3.6,8,8,8H475c4.4,0,8-3.6,8-8
	c0-4.4-3.6-8-8-8h-16v-86.4C473.8,376.1,483,360.3,483,343.2z M363.2,159.5h31.9v71.9h-31.9V159.5z M227.4,143.6h31.9v87.9h-31.9
	V143.6z M91.6,159.5h31.9v71.9H91.6V159.5z M19.8,271.4c0-13.2,10.7-24,24-24h399.4c13.2,0,24,10.7,24,24v71.9
	c0,12.7-7.5,24.2-19.1,29.3c-12.1,5.1-26,2.5-35.4-6.7c-6-6-9.4-14.2-9.4-22.7v-31.9c0-12.1-6.9-23.1-17.7-28.4l-0.5-0.3
	c-1.3-0.6-2.6-1.1-3.9-1.5c-0.8-0.3-1.5-0.5-2.3-0.7c-1-0.2-2.1-0.4-3.1-0.5c-0.7-0.1-1.4-0.3-2.1-0.4c-0.4,0-0.7,0.1-1.1,0
	c-0.4,0-0.8-0.1-1.2-0.1c-0.9,0-1.7,0.2-2.6,0.3c-0.9,0.1-1.8,0.1-2.7,0.3c-1.4,0.3-2.7,0.6-4.1,1c-0.7,0.2-1.5,0.4-2.2,0.7
	c-1.5,0.6-2.9,1.3-4.3,2.2c-0.5,0.3-1,0.5-1.5,0.8c-1.9,1.2-3.6,2.6-5.2,4.2c-6,6-9.4,14.1-9.4,22.6v16c0,17.6-14.3,31.9-31.9,31.9
	c-17.6,0-31.9-14.3-31.9-31.9v-16c0-12.1-6.9-23.1-17.7-28.4l-0.5-0.3c-1.3-0.6-2.6-1.1-3.9-1.5c-0.8-0.3-1.5-0.5-2.3-0.7
	c-1-0.2-2.1-0.4-3.1-0.5c-0.7-0.1-1.4-0.3-2.1-0.4c-0.4,0-0.7,0.1-1.1,0c-0.4,0-0.8-0.1-1.2-0.1c-0.9,0-1.7,0.2-2.6,0.3
	c-0.9,0.1-1.8,0.1-2.7,0.3c-1.4,0.3-2.7,0.6-4.1,1c-0.7,0.2-1.5,0.4-2.2,0.7c-1.5,0.6-2.9,1.3-4.3,2.1c-0.5,0.3-1.1,0.5-1.5,0.8
	c-1.9,1.2-3.6,2.6-5.2,4.2c-6,6-9.4,14.1-9.4,22.6v47.9c0,17.6-14.3,31.9-31.9,31.9c-17.6,0-31.9-14.3-31.9-31.9v-47.9
	c0-12.1-6.9-23.1-17.7-28.4l-0.5-0.3c-1.3-0.6-2.6-1.1-3.9-1.5c-0.8-0.3-1.5-0.5-2.3-0.7c-1-0.2-2.1-0.4-3.1-0.5
	c-0.7-0.1-1.4-0.3-2.1-0.4c-0.7-0.1-1.5-0.1-2.3-0.1c-17.6,0-31.9,14.3-31.9,31.9v31.9c0,8.5-3.3,16.6-9.3,22.6
	c-7.9,7.6-19.1,10.8-29.8,8.5c-1.9-0.4-3.8-1-5.6-1.7c-3.7-1.6-7-3.9-9.8-6.7c-6-6-9.4-14.2-9.4-22.7V271.4z M43.7,471v-80.5
	c0.8,0.1,1.6,0.2,2.4,0.3l0.6,0.1c7,0.7,14.1-0.1,20.7-2.4c2-0.7,4-1.6,5.9-2.5c0.4-0.2,0.8-0.4,1.2-0.6c1.5-0.8,3.1-1.8,4.5-2.8
	c0.5-0.3,0.9-0.6,1.4-0.9c12.2-8.9,19.4-23.2,19.2-38.3v-31.9c0-4.2,1.7-8.3,4.7-11.3c0.8-0.8,1.7-1.5,2.6-2.1
	c0.2-0.1,0.4-0.2,0.5-0.3c0.8-0.5,1.6-0.9,2.5-1.2c0.2-0.1,0.5-0.2,0.8-0.2c0.8-0.3,1.6-0.5,2.4-0.6c0.4-0.1,0.8-0.1,1.2-0.1
	c0.7-0.1,1.3-0.1,2-0.1c0.5,0,1,0.1,1.5,0.2c0.6,0.1,1.2,0.2,1.8,0.3c0.2,0,0.4,0.1,0.6,0.2c7,2.5,11.6,9.2,11.5,16.6v46.6
	c0,26.5,21.5,47.9,47.9,47.9c26.5,0,47.9-21.5,47.9-47.9v-47.9c0-5.4,2.8-10.5,7.3-13.4c0.1-0.1,0.3-0.1,0.4-0.2
	c0.8-0.5,1.7-0.9,2.5-1.3c0.2-0.1,0.5-0.1,0.7-0.2c0.8-0.3,1.6-0.5,2.4-0.6c0.4-0.1,0.8-0.1,1.2-0.1c0.7-0.1,1.3-0.1,2-0.1
	c0.5,0,1,0.1,1.5,0.2c0.6,0.1,1.2,0.2,1.8,0.3c0.2,0,0.4,0.1,0.6,0.2c7,2.5,11.6,9.2,11.5,16.6v14.6c0,26.5,21.5,47.9,47.9,47.9
	c26.5,0,47.9-21.5,47.9-47.9v-16c0-4.2,1.7-8.3,4.7-11.3c0.8-0.8,1.7-1.5,2.6-2.1c0.2-0.1,0.4-0.2,0.5-0.3c0.8-0.5,1.6-0.9,2.4-1.2
	c0.2-0.1,0.5-0.2,0.8-0.2c0.8-0.3,1.6-0.5,2.4-0.6c0.4-0.1,0.8-0.1,1.2-0.1c0.7-0.1,1.3-0.1,2-0.1c0.5,0,1,0.1,1.5,0.2
	c0.6,0.1,1.2,0.2,1.8,0.3c0.2,0,0.4,0.1,0.6,0.2c7,2.5,11.6,9.2,11.5,16.6v30.6c0,12.7,5,24.9,14,34c1.6,1.5,3.3,3,5.1,4.3
	c0.5,0.4,1.1,0.7,1.6,1.1c1.3,0.9,2.7,1.8,4.1,2.5c0.6,0.3,1.1,0.6,1.7,0.9c1.6,0.8,3.3,1.5,4.9,2.1c0.3,0.1,0.7,0.3,1,0.4
	c4.4,1.5,9,2.4,13.6,2.6h0.1c2.2,0.1,4.5,0,6.7-0.2l0.8-0.1c0.8-0.1,1.6-0.1,2.4-0.3V471H43.7z"/>
<path class="st0" d="M243.4,111.6c22,0,39.9-17.9,39.9-39.9c0-19.2-27.8-60.4-33.4-68.4c-1.6-2-4-3.2-6.6-3.2c-2.6,0-5,1.2-6.6,3.2
	c-5.6,8.1-33.4,49.3-33.4,68.4C203.5,93.7,221.4,111.6,243.4,111.6z M243.4,22.2c11.5,18,24,40.7,24,49.5c0,13.2-10.7,24-24,24
	c-13.2,0-24-10.7-24-24C219.4,62.9,231.9,40.2,243.4,22.2z"/>
<path class="st0" d="M379.2,127.6c22,0,39.9-17.9,39.9-39.9c0-19.2-27.8-60.4-33.4-68.4c-1.6-2-4-3.2-6.6-3.2c-2.6,0-5,1.2-6.6,3.2
	c-5.6,8.1-33.4,49.3-33.4,68.4C339.3,109.7,357.1,127.6,379.2,127.6z M379.2,38.2c11.5,18,24,40.7,24,49.5c0,13.2-10.7,24-24,24
	c-13.2,0-24-10.7-24-24C355.2,78.9,367.7,56.2,379.2,38.2z"/>
<path class="st0" d="M107.6,127.6c22,0,39.9-17.9,39.9-39.9c0-19.2-27.8-60.4-33.4-68.4c-1.6-2-4-3.2-6.6-3.2c-2.6,0-5,1.2-6.6,3.2
	c-5.6,8.1-33.4,49.3-33.4,68.4C67.7,109.7,85.6,127.6,107.6,127.6z M107.6,38.2c11.5,18,24,40.7,24,49.5c0,13.2-10.7,24-24,24
	c-13.2,0-24-10.7-24-24C83.7,78.9,96.1,56.2,107.6,38.2z"/>
</svg>
