<?xml version="1.0" encoding="utf-8"?>
<!-- Generator: Adobe Illustrator 23.0.1, SVG Export Plug-In . SVG Version: 6.00 Build 0)  -->
<svg version="1.1" id="Livello_1" xmlns="http://www.w3.org/2000/svg" xmlns:xlink="http://www.w3.org/1999/xlink" x="0px" y="0px"
	 viewBox="0 0 588 583" style="enable-background:new 0 0 588 583;" xml:space="preserve">
<style type="text/css">
	.st0{fill:#2D28AD;}
	.st1{fill:#FFE256;}
	.st2{fill:#FFE64D;}
</style>
<circle class="st0" cx="291.5" cy="285.5" r="281"/>
<path class="st1" d="M165.4,443.5l4.4-17.7l-12.2-4.8l-8.4,13.8c0,0,4.6,12.5-0.5,22.5C148.8,457.3,155.2,446.4,165.4,443.5z
	 M157.2,435.4c1.5-0.6,3.2,0.1,3.9,1.6c0.6,1.5-0.1,3.2-1.6,3.8c-1.5,0.6-3.2-0.1-3.9-1.6C155,437.7,155.7,436,157.2,435.4z"/>
<path class="st2" d="M293.4,238.6c-35.1,28.8-81.1,88.1-120.1,157.4l0,0l-6.8,12l7.3,2.8l3.8-10.1c20.8-37.5,77.2-135.4,180.4-200.4
	c0,0,38.4-22.9,76.3-54.5c-9.2,7.7-27.4,17.4-37.3,23.6C371.1,185.7,339.2,201,293.4,238.6z"/>
<path class="st2" d="M168.2,341.4c-8,28.2-7.5,49.7-4.4,55.6h4.8c13.3-27.6,77.6-127.7,117.6-159c41.4-32.5,73.4-51.3,100.3-65.1
	c9.4-4.8,19.1-11.4,27.9-17.9c10.6-8.4,21.4-17.3,30.8-26.1l-27.3,17.9l12.2-18.6l-23.2,23.6L422,126c-35.8,3.2-68.9,21.1-68.9,21.1
	c-13.3,15.7-24,40.8-24,40.8c-0.4-12.5,8.1-31.5,8.1-31.5c-6.3,2.9-30.1,16.5-30.1,16.5c-11.6,9.7-15.3,35.1-15.3,35.1
	c-2.2-10,5.5-29.3,5.5-29.3c-33.5,19.3-57.5,52.2-57.5,52.2c-16.6,32.5-2.9,58-8.1,51.9s-4.1-28.3-4.1-28.3
	c-35,33.6-38.7,49.7-38.7,49.7c-5.9,14.3-11.1,52.6-11.1,52.6c-3.3-3.6,0-23.6,0-23.6c-8.5,17.9-4.4,34.7-4.4,34.7
	C169.3,366.4,168.2,341.4,168.2,341.4z"/>
<path class="st2" d="M445,140.2c0,0-13.5,13.1-30.8,26.1c-27.1,21.4-53.2,38.8-53.2,38.8c-102.1,60.3-159,158.8-177.8,192.6h10
	c3.5-2.8,8.8-5,31-11.4c28-8.1,44.7-25,44.7-25s-25.6,14.3-37.6,12.9s-28.2,3.1-28.2,3.1s-6.2-2.9,24.3-7.4s80.6-38.6,80.6-38.6
	s-19.2,7.9-28,7.1s-30.7,0-30.7,0c14.5-3.3,28-1.4,50.1-9.8s20.9-7.6,20.9-7.6c25.1-8.4,35.5-34.3,35.5-34.3
	c-4.3,1.7-37.4,5.7-51.2,1.7c-13.7-4-37.1,0-37.1,0c22.1-7.4,27-4,32.4-4.3c5.4-0.2,22.9,1.2,57.5-10.7s44.5-26.7,44.5-26.7
	l-23.4,3.1C393.8,247.1,411,237,411,237c-10.6,2.9-27,4.3-27,4.3c19.4-4.3,30.2-10.3,30.2-10.3c18.2-13.8,22.4-34.3,22.4-34.3
	c-25.8,8.8-46.2,4.8-46.2,4.8c35.4-2.4,45.2-11.4,50.1-13.6c4.9-2.1,6.9-11,6.9-11c-17.9,6.4-38.1,7.5-38.1,7.5
	c21.9-3.4,40.7-14.5,40.7-14.5v-11.1c-8.5,4.8-23.4,8.6-23.4,8.6l23.2-15C451.1,144.8,445,140.2,445,140.2z"/>
<polygon class="st1" points="158.6,416.6 172.4,422.1 174.9,416 161.1,410.5 "/>
<path class="st1" d="M312,411.5c-45.6,21.9-89.5,36.9-147.8,38.9c-5.4,0.2-5.5,5.6,0,5.4c52.2-1.8,95.5-13,137.4-32.6
	c46.6-21.9,89.4-40.2,147.8-46.4c5.4-0.6,3.1-5.8-2.3-5.2C395.5,377,353.5,391.5,312,411.5z"/>
</svg>