<svg id="Livello_1" data-name="Livello 1" xmlns="http://www.w3.org/2000/svg" viewBox="0 0 600 600"><title>instagram</title><path d="M425.71,0H174.29C78.19,0,0,78.19,0,174.29V425.71C0,521.81,78.19,600,174.29,600H425.71C521.81,600,600,521.81,600,425.71V174.29C600,78.19,521.81,0,425.71,0ZM553.13,425.71A127.56,127.56,0,0,1,425.71,553.12H174.29A127.55,127.55,0,0,1,46.88,425.71V174.29A127.56,127.56,0,0,1,174.29,46.87H425.71A127.56,127.56,0,0,1,553.13,174.29Z" transform="translate(0 0)"/><path d="M300,138.28c-89.17,0-161.72,72.55-161.72,161.72S210.83,461.72,300,461.72,461.72,389.17,461.72,300,389.17,138.28,300,138.28Zm0,276.56A114.84,114.84,0,1,1,414.84,300,115,115,0,0,1,300,414.84Z" transform="translate(0 0)"/><circle cx="464.06" cy="135.94" r="23.44"/></svg>