<svg id="Livello_1" data-name="Livello 1" xmlns="http://www.w3.org/2000/svg" viewBox="0 0 238.13 257.27"><defs><style>.cls-1{fill:#b71c1c;}.cls-2{fill:none;stroke:#262626;stroke-linecap:round;stroke-miterlimit:10;stroke-width:2px;}</style></defs><title>logoGP8COPIA_ROVESCIATA</title><path class="cls-1" d="M31.16,46.21c-7.33,12-11.53,28.85-20,62.67C4.62,135,1.31,148.25,1.82,158.75,2.36,170,3.9,200.6,27.42,220.07c13.5,11.15,28.19,13.65,34.77,14.69a82.33,82.33,0,0,0,49.26-8c-8.48-10.64-16.89-21.4-25.3-32.17-1.36.67-13.47,6.06-24.92-.29-11.3-6.2-15.36-20-12.74-30.95,3.42-14.16,17.52-20.85,27.19-22.24,13.75,4.12,21,5.93,31.51,7.57,24.93,2.82,45.54-16.12,47.93-18.41,25.72-24.38,20.57-60,19.75-65.86-1.12-7.33-4.47-28.37-22.28-45C132.3.42,103.18-3.83,80.11,3.17,52.42,11.52,38.58,34.18,31.16,46.21Zm96.49,27.64A27.7,27.7,0,1,1,92.5,56.54,27.7,27.7,0,0,1,127.65,73.85Z" transform="translate(-1.77)"/><circle class="cls-2" cx="162.17" cy="114.27" r="27.7"/><path class="cls-2" d="M167.34,179.23l6.85.56a59.64,59.64,0,0,0,18.08-3.29c40.08-13.62,55.23-55.23,41.89-94.5s-56.67-60-96.75-46.43a77.54,77.54,0,0,0-35,24.11h0C94.21,68.8,88.61,78,83.32,86.08c-1.85,2.85-13.3,20.53-19.4,40.72-12.66,42.1,1.42,83.54,6.22,96.12a89.44,89.44,0,0,0,9.71,19A85.52,85.52,0,0,0,90,254.38c-5.36-35.14,1.41-65.66,18-78a50.54,50.54,0,0,1,23.38-6.19c8.57,1.09,5.9.61,10.93,2a127.24,127.24,0,0,0,12.35,4.28c6.35,1.72,12.88,2.73,13.09,2.82" transform="translate(-1.77)"/></svg>