<svg id="Livello_1" data-name="Livello 1" xmlns="http://www.w3.org/2000/svg" viewBox="0 0 244.29 250.66"><defs><style>.cls-1{fill:#b71c1c;}.cls-2{fill:none;stroke:#262626;stroke-linecap:round;stroke-miterlimit:10;stroke-width:2px;}</style></defs><title>logoGP8COPIA</title><path class="cls-1" d="M223.16,69c-9-10.8-23.6-20.2-52.9-39.1-22.6-14.6-34.1-22-44.2-24.9-10.8-3.1-40.3-11.5-66.3,4.5-14.9,9.2-22,22.3-25.1,28.2a82.26,82.26,0,0,0-8.3,49.2c12.8-4.6,25.7-9.1,38.6-13.6-.2-1.5-1.4-14.7,8.3-23.5,9.5-8.7,23.9-8.1,33.4-2.1,12.3,7.8,14.1,23.3,12.3,32.9-8.31,11.69-12.38,18-17.3,27.4-10.7,22.7.6,48.3,2,51.3,14.8,32.2,50.2,38.8,56,39.9,7.3,1.3,28.3,4.9,49.8-6.6,24.5-13.1,37.9-39.3,38.7-63.4C249.16,100.28,232.16,79.88,223.16,69Zm-57.22,82.46a27.7,27.7,0,1,1,27.7-27.7A27.7,27.7,0,0,1,165.94,151.44Z" transform="translate(-3.92 0)"/><circle class="cls-2" cx="112.08" cy="172.79" r="27.7"/><path class="cls-2" d="M53.39,155.1l-2.73,6.31A59.68,59.68,0,0,0,48,179.58c0,42.34,34.52,70.08,76,70.08S199,215.34,199,173a77.5,77.5,0,0,0-11.56-40.89h0c-6-10.7-12.85-19-18.84-26.57-2.1-2.67-15.16-19.2-32.3-31.48-35.79-25.54-79.56-25.54-93-25a88.86,88.86,0,0,0-21.13,3.07,85.32,85.32,0,0,0-15,5.64C42.12,64,68.83,80.2,75.21,99.9A50.55,50.55,0,0,1,73.55,124c-3.79,7.76-2.48,5.39-5.43,9.7a123.93,123.93,0,0,0-8,10.31c-3.67,5.46-6.73,11.32-6.88,11.49" transform="translate(-3.92 0)"/></svg>