<?xml version="1.0" encoding="utf-8"?>
<!-- Generator: Adobe Illustrator 23.0.1, SVG Export Plug-In . SVG Version: 6.00 Build 0)  -->
<svg version="1.1" id="Livello_1" xmlns="http://www.w3.org/2000/svg" xmlns:xlink="http://www.w3.org/1999/xlink" x="0px" y="0px"
	 viewBox="0 0 252.3 257.4" style="enable-background:new 0 0 252.3 257.4;" xml:space="preserve">
<style type="text/css">
	.st0{fill:#FFE74E;}
	.st1{fill:#FFFFFF;}
	.st2{fill:none;stroke:#26377B;stroke-width:4;stroke-miterlimit:10;stroke-dasharray:2;}
</style>
<path class="st0" d="M210,195.6c-21.5,11.5-42.5,7.9-49.8,6.6c-5.8-1.1-41.2-7.7-56-39.9c-1.4-3-12.7-28.6-2-51.3
	c6.2-13.2,15-14.5,17.3-27.4c1.8-9.6,0-25.1-12.3-32.9c-9.5-6-23.9-6.6-33.4,2.1c-9.7,8.8-8.5,22-8.3,23.5
	c-12.9,4.5-25.8,9-38.6,13.6c-1.1-7.8-2.8-28,8.3-49.2c3.1-5.9,10.2-19,25.1-28.2c26-16,55.5-7.6,66.3-4.5
	c10.1,2.9,21.6,10.3,44.2,24.9c29.3,18.9,43.9,28.3,52.9,39.1c9,10.9,26,31.3,25,60.2C247.9,156.3,234.5,182.5,210,195.6z"/>
<circle class="st1" cx="165.7" cy="126.9" r="27.7"/>
<path class="st2" d="M108.2,251.4c-12.2-1.7-21.3-6.2-25.9-8.4c-7.3-3.6-15.9-7.9-23.3-16.8c-9.4-11.2-11.6-23.3-12.5-28.8
	c-0.8-4.7-4.3-28.5,9.3-48.6c7.2-10.7,14.1-12.6,16.9-23.8c0,0,2.5-9.7-1.3-21.7C65,83.4,38.2,67,3.1,60.7c4.1-2,9.2-4.1,15.1-5.7
	c8.2-2.2,15.5-3,21.2-3.1c13.5-0.5,57.4-0.5,93.3,25.3c17.2,12.4,30.3,29.1,32.4,31.8c6.8,8.7,13.7,17.6,18.8,31.1
	c2.9,7.6,10.5,28.5,4.4,54.3c-2.2,9-7.7,32.4-29.8,47C137.1,255.5,114,252.2,108.2,251.4z"/>
<ellipse transform="matrix(0.9022 -0.4313 0.4313 0.9022 -66.565 71.4253)" class="st2" cx="124.2" cy="182.5" rx="27.7" ry="27.7"/>
</svg>
