<?xml version="1.0" encoding="utf-8"?>
<!-- Generator: Adobe Illustrator 23.0.1, SVG Export Plug-In . SVG Version: 6.00 Build 0)  -->
<svg version="1.1" id="Capa_1" xmlns="http://www.w3.org/2000/svg" xmlns:xlink="http://www.w3.org/1999/xlink" x="0px" y="0px"
	 viewBox="0 0 473.2 473.2" style="enable-background:new 0 0 473.2 473.2;" xml:space="preserve">
<style type="text/css">
	.st0{fill:#2D28AD;}
</style>
<g>
	<path class="st0" d="M464.7,167.8c-0.8-3.3-3-6-6-7.6c-3-1.6-6.5-1.9-9.6-0.7c-27.9,9.8-70.9,16.1-119.3,16.1
		c-11.8,0-23.1-0.4-34.1-1.2c-5.7,25.7-14.8,49.3-26.4,70c0.6,0,1.1-0.1,1.7-0.1c15,0,27.2-1.3,27.2,8.9c0,10.1-12.2,27.8-27.2,27.8
		c-8.8,0-16.5-2.8-21.4-7.2c-15,18.7-32.6,33.4-51.9,43.1c21.8,73.4,72.8,124.8,132.1,124.8c79.2,0,143.4-91.6,143.4-204.6
		C473.2,212.7,470.2,189.4,464.7,167.8z M386.9,381.9c-0.3,1.1-1.1,2-2.1,2.3c-1.1,0.4-2.2,0.1-3.1-0.6c-11.2-9.4-30.2-15.6-52-15.6
		c-21.8,0-40.8,6.2-52,15.6c-0.8,0.7-2,0.9-3.1,0.6c-1.1-0.4-1.9-1.2-2.1-2.3c-0.9-3.9-1.5-8-1.5-12.2c0-32.4,26.3-58.7,58.7-58.7
		s58.7,26.3,58.7,58.7C388.4,373.9,387.8,378,386.9,381.9z M388.5,280.9c-15,0-27.2-17.7-27.2-27.8s12.2-8.9,27.2-8.9
		s27.2,8.2,27.2,18.3C415.8,272.7,403.6,280.9,388.5,280.9z"/>
	<path class="st0" d="M286.9,109.9c0-24.4-3-47.7-8.5-69.3c-0.8-3.3-3-6-6-7.6c-1.8-0.9-3.7-1.4-5.7-1.4c-1.3,0-2.7,0.2-4,0.7
		c-27.9,9.8-70.9,16.1-119.3,16.1C95.1,48.3,52,42,24.2,32.2c-1.3-0.5-2.6-0.7-4-0.7c-2,0-3.9,0.5-5.7,1.4c-3,1.6-5.1,4.4-6,7.6
		C3,62.2,0,85.6,0,109.9c0,113,64.2,204.6,143.4,204.6C222.7,314.5,286.9,222.9,286.9,109.9z M57.4,135.3
		c0-10.1,12.2-18.3,27.2-18.3c15,0,27.2,17.7,27.2,27.8c0,10.1-12.2,8.9-27.2,8.9C69.6,153.7,57.4,145.5,57.4,135.3z M143.4,275.8
		c-32.4,0-58.7-26.3-58.7-58.7c0-4.2,0.6-8.3,1.5-12.2c0.3-1.1,1.1-1.9,2.1-2.3c1.1-0.3,2.2-0.1,3.1,0.6c11.2,9.4,30.2,15.6,52,15.6
		s40.8-6.2,52-15.6c0.8-0.7,2-0.9,3.1-0.6c1.1,0.3,1.9,1.2,2.1,2.3c0.9,3.9,1.5,8,1.5,12.2C202.1,249.6,175.8,275.8,143.4,275.8z
		 M175,144.8c0-10.1,12.2-27.8,27.2-27.8c15,0,27.2,8.2,27.2,18.3c0,10.1-12.2,18.3-27.2,18.3C187.2,153.7,175,154.9,175,144.8z"/>
</g>
</svg>
