<svg id="Livello_1" data-name="Livello 1" xmlns="http://www.w3.org/2000/svg" viewBox="0 0 603.5 603.5"><defs><style>.cls-1{stroke:#000;stroke-miterlimit:10;stroke-width:0.5px;}</style></defs><title>linkedin</title><path class="cls-1" d="M424.13,0H172.87C75.89,0-3,78.89-3,175.87V427.13C-3,524.11,75.89,603,172.87,603H424.13c97,0,175.87-78.89,175.87-175.87V175.87C600,78.89,521.11,0,424.13,0ZM549.75,427.13A125.77,125.77,0,0,1,424.13,552.75H172.87A125.77,125.77,0,0,1,47.25,427.13V175.87A125.77,125.77,0,0,1,172.87,50.25H424.13A125.77,125.77,0,0,1,549.75,175.87Z" transform="translate(3.25 0.25)"/><path class="cls-1" d="M198,238.69a25.13,25.13,0,0,0-25.13,25.12V452.25a25.13,25.13,0,1,0,50.25,0V263.81A25.12,25.12,0,0,0,198,238.69Z" transform="translate(3.25 0.25)"/><path class="cls-1" d="M373.88,263.81H348.75a75,75,0,0,0-25.12,4.4v-4.4a25.13,25.13,0,0,0-50.26,0V452.25a25.13,25.13,0,0,0,50.26,0V339.19a25.15,25.15,0,0,1,25.12-25.13h25.13A25.15,25.15,0,0,1,399,339.19V452.25a25.13,25.13,0,1,0,50.25,0V339.19A75.46,75.46,0,0,0,373.88,263.81Z" transform="translate(3.25 0.25)"/><path class="cls-1" d="M198,125.62a37.69,37.69,0,1,0,37.69,37.69A37.74,37.74,0,0,0,198,125.62Z" transform="translate(3.25 0.25)"/></svg>